<svg width="136" height="147" viewBox="0 0 136 147" fill="none" xmlns="http://www.w3.org/2000/svg">
<path d="M62.2136 99.5014C62.2136 99.5014 51.0318 95.6826 45.5778 90.7457C38.9797 84.7732 34.0051 71.0455 34.0051 71.0455L28.2188 1H107.781L101.995 71.0455C101.995 71.0455 96.8738 84.8212 90.4222 90.7457C84.6297 96.0649 73.0631 99.5014 73.0631 99.5014V117.742C73.0631 117.742 80.5146 131.398 88.9756 133.795C92.2502 134.722 94.6794 132.887 97.6551 134.524C99.4086 135.489 101.272 137.443 101.272 137.443V145.469H34.0051V137.443C34.0051 137.443 35.9089 135.561 37.6216 134.524C41.2548 132.325 44.4671 134.492 48.471 133.065C54.8741 130.783 60.767 121.391 60.767 121.391" stroke="#ED4545" stroke-width="1.5" stroke-linecap="round" stroke-linejoin="round"/>
<path d="M26.6284 65.9062C26.6284 65.9062 17.2406 59.1128 12.7158 53.3437C3.2296 41.2489 1 15.6562 1 15.6562H22.235M113.765 15.6562C114.937 15.6562 128.41 15.6562 135 15.6562C135 15.6562 133.414 41.3861 124.016 53.3437C119.352 59.2786 110.104 65.9062 110.104 65.9062" stroke="#ED4545" stroke-width="1.5" stroke-linecap="round" stroke-linejoin="round"/>
<path d="M43.6464 45.5325L40.7812 11.4688H72.2977M95.2188 38.2849L92.3536 66.5505C87.4712 78.9944 82.7021 82.4328 71.5814 86.8438" stroke="#ED4545" stroke-width="1.5" stroke-linecap="round" stroke-linejoin="round"/>
</svg>
