<svg width="89" height="110" viewBox="0 0 89 110" fill="none" xmlns="http://www.w3.org/2000/svg">
<path d="M4.79631 5.01655H83.3151M4.79631 5.01655V89.5509M4.79631 5.01655V25.1927H83.3151V5.01655M83.3151 5.01655V89.5509M83.3151 89.5509H4.79631M83.3151 89.5509V71.2429H71.5433M4.79631 89.5509V71.2429H17.8804M1 93.2873V1H87.667V93.2873M1 93.2873L8.50003 108.326H79.241L87.667 93.2873M1 93.2873H87.667M28.4618 45.5584L4.79631 45.748V29.7752H18.8257M61.7177 45.3689H83.3151V29.3961L72.2991 29.5856M36.02 29.7752L44.3339 29.7278L52.6479 29.6804M29.9734 51.2536H4.79631V67.2264H14.1013M58.6944 51.2536H83.3151V67.2264H71.5433M38.2874 67.2264H49.6246M34.5083 71.2429H54.1595M12.4815 14.5442C13.6577 14.5442 14.6112 15.5061 14.6112 16.6926C14.6112 17.8791 13.6577 18.841 12.4815 18.841C11.3054 18.841 10.3519 17.8791 10.3519 16.6926C10.3519 15.5061 11.3054 14.5442 12.4815 14.5442ZM12.4815 35.9347C13.6577 35.9347 14.6112 36.8965 14.6112 38.083C14.6112 39.2696 13.6577 40.2314 12.4815 40.2314C11.3054 40.2314 10.3519 39.2696 10.3519 38.083C10.3519 36.8965 11.3054 35.9347 12.4815 35.9347ZM12.4815 57.1383C13.6577 57.1383 14.6112 58.1002 14.6112 59.2867C14.6112 60.4732 13.6577 61.4351 12.4815 61.4351C11.3054 61.4351 10.3519 60.4732 10.3519 59.2867C10.3519 58.1002 11.3054 57.1383 12.4815 57.1383ZM12.4815 77.7815C13.6577 77.7815 14.6112 78.7434 14.6112 79.9299C14.6112 81.1164 13.6577 82.0783 12.4815 82.0783C11.3054 82.0783 10.3519 81.1164 10.3519 79.9299C10.3519 78.7434 11.3054 77.7815 12.4815 77.7815Z" stroke="#ED4545" stroke-width="1.5"/>
<path d="M47.7237 34.62L44.5566 37.7088L56.7831 49.9353L74.567 32.1514L62.5628 20.1472L59.2725 23.3564M47.7237 34.62L51.9241 38.8203M47.7237 34.62L51.4479 30.9877M51.4479 30.9877L55.4493 34.9891M51.4479 30.9877L55.4493 27.0851M55.4493 27.0851L59.1817 30.8176M55.4493 27.0851L59.2725 23.3564M59.2725 23.3564L63.1769 27.2608" stroke="#ED4545" stroke-width="1.5" stroke-linecap="round"/>
<path d="M17.2686 63.9633L14.1016 67.0522L26.328 79.2786L44.1119 61.4947L32.1078 49.4906L28.8174 52.6997M17.2686 63.9633L21.469 68.1637M17.2686 63.9633L20.9928 60.3311M20.9928 60.3311L24.9942 64.3325M20.9928 60.3311L24.9942 56.4285M24.9942 56.4285L28.7266 60.1609M24.9942 56.4285L28.8174 52.6997M28.8174 52.6997L32.7218 56.6042" stroke="#ED4545" stroke-width="1.5" stroke-linecap="round"/>
<path d="M59.4506 76.6111L63.8965 72.1651L27.4395 35.7081M59.4506 76.6111H67.2652M59.4506 76.6111L22.9936 40.1541M27.4395 35.7081L22.9936 40.1541M27.4395 35.7081L30.9963 32.1514M22.9936 40.1541L20.326 37.4865M34.9977 28.15L30.9963 32.1514M34.9977 28.15L32.3301 25.4824M34.9977 28.15L71.4547 64.607M71.4547 64.607L67.4533 68.6084L30.9963 32.1514M71.4547 64.607V72.4216M71.4547 72.4216V76.6111H67.2652M71.4547 72.4216L67.2652 76.6111M32.3301 25.4824L30.9963 24.1486L24.9943 23.2594L18.9922 28.5946V36.1527L20.326 37.4865M32.3301 25.4824L20.326 37.4865" stroke="#ED4545" stroke-width="1.5" stroke-linecap="round"/>
</svg>
