<svg width="26" height="24" viewBox="0 0 26 24" fill="none" xmlns="http://www.w3.org/2000/svg">
<path d="M23.5411 5.43875C23.1827 4.59149 22.6659 3.82372 22.0196 3.1784C21.3729 2.53116 20.6104 2.01681 19.7736 1.66332C18.9058 1.29531 17.9751 1.10694 17.0355 1.10915C15.7172 1.10915 14.4311 1.47768 13.3134 2.1738C13.046 2.34033 12.792 2.52323 12.5513 2.72251C12.3107 2.52323 12.0566 2.34033 11.7892 2.1738C10.6715 1.47768 9.3854 1.10915 8.06716 1.10915C7.11792 1.10915 6.19809 1.29478 5.32907 1.66332C4.48946 2.0182 3.73274 2.52869 3.08298 3.1784C2.43588 3.82299 1.91897 4.59094 1.56152 5.43875C1.18985 6.3205 1 7.25685 1 8.2205C1 9.12955 1.18183 10.0768 1.5428 11.0405C1.84496 11.8458 2.27813 12.6811 2.83163 13.5247C3.70868 14.8596 4.91461 16.2518 6.412 17.6632C8.8934 20.0027 11.3507 21.6188 11.455 21.6843L12.0887 22.0992C12.3695 22.2821 12.7305 22.2821 13.0112 22.0992L13.6449 21.6843C13.7492 21.616 16.2039 20.0027 18.6879 17.6632C20.1853 16.2518 21.3913 14.8596 22.2683 13.5247C22.8218 12.6811 23.2577 11.8458 23.5571 11.0405C23.9181 10.0768 24.0999 9.12955 24.0999 8.2205C24.1026 7.25685 23.9128 6.3205 23.5411 5.43875Z" stroke="#999999" stroke-width="2"/>
</svg>
