<svg width="253" height="147" viewBox="0 0 253 147" fill="none" xmlns="http://www.w3.org/2000/svg">
<path d="M17.1418 100.459L19.3268 97.0439L22.058 90.782L25.8818 89.0742L28.613 90.782L33.5292 85.6587L32.4367 81.6738L31.8905 79.9661L38.4454 75.9812L39.5379 78.8275L47.1854 77.689C48.0958 78.2583 50.0259 79.6245 50.4629 80.5353C50.8999 81.4461 51.0091 82.8124 51.0091 83.3816L49.3704 86.2279C49.7345 87.3664 50.7906 89.8712 52.1016 90.782C53.7403 91.9205 57.5641 93.059 58.6566 94.1976C59.749 95.3361 59.749 96.4746 60.2953 97.0439C60.7323 97.4993 63.3907 97.2336 64.6653 97.0439V93.059C63.2086 92.8693 60.623 92.4898 61.934 92.4898C63.5728 92.4898 66.304 90.782 66.8502 90.782C67.3965 90.782 69.0352 87.9357 69.5815 87.9357C70.0185 87.9357 74.8619 90.9717 77.2289 92.4898C78.6856 92.3 81.9266 92.0344 83.2376 92.4898C84.5486 92.9452 86.6972 93.059 87.6076 93.059C87.7897 94.1976 88.0446 96.5884 87.6076 97.0439C87.1706 97.4993 85.2405 98.3721 84.3301 98.7516L87.6076 100.459C87.7897 101.408 88.2631 103.42 88.7001 103.875C89.1371 104.33 89.9747 105.203 90.3388 105.583L93.6163 102.736L96.8938 105.583V110.706L97.44 117.537C98.7146 117.727 101.373 118.22 101.81 118.676C102.247 119.131 104.177 120.004 105.087 120.384L106.726 122.091C107.455 123.609 109.02 126.645 109.457 126.645C109.894 126.645 112.189 128.163 113.281 128.922C114.556 128.733 117.323 128.239 118.197 127.784C119.29 127.215 122.021 126.645 123.114 126.645C124.206 126.645 126.937 126.645 128.03 127.215C128.904 127.67 130.943 129.302 131.854 130.061L134.585 128.922L135.677 124.938L138.955 123.799L144.417 128.353C144.963 129.112 146.165 130.63 146.602 130.63C147.148 130.63 149.88 129.492 150.972 129.492C152.065 129.492 153.703 131.199 154.796 131.199C155.888 131.199 156.981 133.476 158.073 133.476C159.166 133.476 161.351 134.046 161.897 133.476C162.443 132.907 166.267 132.338 166.267 131.769C166.267 131.313 167.36 130.061 167.906 129.492L170.091 128.922C170.455 129.112 171.402 129.606 172.276 130.061C173.368 130.63 172.276 131.199 175.007 130.63C177.738 130.061 178.831 130.63 179.923 128.922C181.016 127.215 181.562 124.938 181.562 124.368C181.562 123.913 181.926 121.143 182.108 119.814L180.47 118.106L181.562 115.26L184.293 111.845L188.663 112.983L194.126 118.676L199.042 122.661C200.681 122.85 204.067 123.344 204.504 123.799C204.941 124.254 206.871 123.609 207.782 123.23L207.236 120.384H211.059C211.788 120.763 213.354 121.522 213.791 121.522C214.337 121.522 215.429 125.507 215.429 126.645C215.429 127.784 215.976 130.061 215.429 131.199C214.883 132.338 214.337 134.046 213.244 134.615C212.152 135.184 209.967 135.754 209.967 136.323C209.967 136.892 212.698 142.585 212.698 143.154C212.698 143.609 212.334 145.241 212.152 146L214.883 141.446C215.793 141.256 217.942 140.649 219.253 139.738C220.564 138.828 223.077 133.287 224.169 130.63C224.533 128.733 225.262 124.824 225.262 124.368C225.262 123.913 225.262 119.624 225.262 117.537C225.08 116.019 224.715 112.869 224.715 112.414C224.715 111.958 223.623 108.05 223.077 106.152L221.984 104.444C223.441 107.67 226.463 114.235 226.9 114.691C227.447 115.26 229.577 119.245 229.877 120.384C230.118 121.294 231.999 122.661 232.909 123.23L232.363 118.106H235.64L237.825 117.537L236.187 114.122C234.912 112.793 232.254 110.137 231.817 110.137C231.38 110.137 230.542 108.998 230.178 108.429L234.002 106.721L229.877 103.875C228.703 103.495 226.245 102.623 225.808 102.167C225.262 101.598 224.715 99.8902 223.623 98.7516C222.53 97.6131 221.984 95.3361 221.438 94.7668C221.001 94.3114 219.799 93.059 219.253 92.4898L216.522 91.9205C217.432 92.8693 219.253 94.9945 219.253 95.9053C219.253 97.0439 219.253 98.7516 218.707 98.7516C218.161 98.7516 214.337 99.3209 213.791 98.7516C213.354 98.2962 212.516 97.8029 212.152 97.6131L211.059 101.598L208.328 98.7516L205.051 100.459L205.597 89.6435L209.421 80.5353C210.513 78.6378 212.807 74.8427 213.244 74.8427C213.681 74.8427 216.704 72.5657 218.161 71.4272L220.346 69.7194L224.169 72.5657C225.08 71.8067 226.9 70.1748 226.9 69.7194C226.9 69.264 227.629 66.4936 227.993 65.1653L224.715 63.4575C223.987 62.5088 222.53 60.4974 222.53 60.042C222.53 59.5866 222.895 55.6776 223.077 53.7801H225.808C226.536 53.9729 227.993 54.4146 227.993 54.6386C227.993 54.8626 228.721 56.4367 229.085 57.1957V50.9338L226.9 46.949L229.085 45.8105L232.363 48.6568L231.817 55.4879C231.817 57.5752 231.926 61.8636 232.363 62.319C232.909 62.8883 233.455 68.5809 233.455 69.7194C233.455 70.6302 234.548 75.0325 235.094 77.1198L239.464 81.6738C240.921 82.6226 244.053 84.5201 244.927 84.5201C245.801 84.5201 248.204 84.5201 249.297 84.5201L252.028 83.9509L249.297 73.1349L246.019 69.7194L244.927 68.0116L246.565 65.1653L244.927 64.596L243.288 60.042L241.103 58.9034L237.825 58.3342L236.187 60.042L235.64 52.6416L236.733 49.226C237.097 47.8978 237.935 45.0135 238.372 44.1027C238.809 43.1919 240.375 41.8257 241.103 41.2564C241.103 40.4974 240.884 38.6378 240.01 37.2716C238.918 35.5638 237.825 35.5638 237.825 33.856C237.825 32.1482 237.825 29.3019 237.825 28.1634C237.825 27.2526 238.19 26.2659 238.372 25.8864L240.01 22.4708L234.002 21.9016H231.817L230.178 19.0553H227.993L227.447 15.6397L231.817 15.0704C233.091 14.8807 235.64 14.2735 235.64 13.3627C235.64 12.4518 236.369 10.3266 236.733 9.37784L231.817 4.2545L230.724 1.4082L227.993 4.2545L226.9 7.1008L228.539 10.5164H224.169C222.895 10.7061 220.236 11.3133 219.799 12.2241L212.698 19.0553L212.152 22.4708L211.606 25.3171H208.874V29.3019C208.51 30.2507 207.563 32.2621 206.689 32.7175C205.597 33.2868 201.227 34.9945 200.681 35.5638C200.134 36.1331 196.311 37.8408 196.311 38.4101C196.311 38.8655 194.854 39.3589 194.126 39.5486L188.663 38.4101L184.839 38.9794L182.108 38.4101L179.377 36.7023C179.377 36.1331 179.486 34.7668 179.923 33.856C180.47 32.7175 178.831 31.0097 178.285 31.0097C177.848 31.0097 175.189 32.1482 173.915 32.7175C173.368 33.6663 172.604 35.7915 173.915 36.7023C175.553 37.8408 178.285 37.8408 179.923 38.9794C181.562 40.1179 184.293 42.3949 184.293 43.5334C184.293 44.6719 183.201 48.0875 182.655 48.6568C182.108 49.226 180.47 48.6568 179.377 48.6568C178.285 48.6568 176.646 51.5031 176.646 52.0723C176.646 52.6416 173.915 52.0723 173.915 51.5031C173.915 50.9338 172.276 47.5182 171.73 46.949C171.183 46.3797 171.73 44.6719 169.545 44.6719C165.721 45.2412 165.175 47.5182 165.175 48.0875C165.175 48.6568 164.628 50.3645 164.082 50.3645C163.536 50.3645 162.443 49.226 161.351 48.6568C160.258 48.0875 159.166 46.949 158.073 46.949C156.981 46.949 155.888 45.8105 155.342 46.949C154.905 47.8598 153.703 49.6055 153.157 50.3645C153.521 51.1236 153.922 52.4139 152.611 51.5031C150.972 50.3645 150.426 49.226 150.426 48.0875C150.426 46.949 149.88 45.2412 151.518 44.6719C153.157 44.1027 155.342 44.6719 156.435 43.5334C157.527 42.3949 159.712 41.2564 159.166 40.6871C158.62 40.1179 157.527 38.9794 156.435 38.4101C155.342 37.8408 151.518 35.5638 150.972 35.5638C150.535 35.5638 148.241 35.1843 147.148 34.9945L145.51 37.8408C145.51 38.4101 145.182 39.5486 143.871 39.5486C142.232 39.5486 140.047 39.5486 139.501 39.5486C138.955 39.5486 135.131 38.9794 134.039 39.5486C133.165 40.004 130.397 41.6359 129.122 42.3949L127.484 44.1027L125.299 48.0875L123.66 46.949L122.021 49.226C121.657 49.7953 120.929 50.7061 120.929 49.7953C120.929 48.8845 121.293 46.0002 121.475 44.6719L117.105 48.0875C116.559 48.8465 115.466 50.5923 115.466 51.5031C115.466 52.6416 114.92 54.9186 114.92 55.4879C114.92 56.0571 116.012 57.7649 116.559 58.3342C116.996 58.7896 117.469 60.4215 117.651 61.1805L113.827 59.4727C113.463 59.8522 112.626 60.7251 112.189 61.1805C111.752 61.6359 109.457 62.5088 108.365 62.8883H106.726L105.087 62.319L110.004 57.1957C110.368 55.8674 111.096 53.097 111.096 52.6416C111.096 52.0723 112.189 49.7953 112.735 48.6568C113.281 47.5182 114.92 45.8105 115.466 45.2412C115.903 44.7858 117.105 43.1539 117.651 42.3949C117.833 41.8257 118.088 40.6871 117.651 40.6871C117.214 40.6871 114.92 41.8257 113.827 42.3949C112.735 43.5334 110.441 45.9243 110.004 46.3797C109.457 46.949 108.365 49.226 108.365 49.7953C108.365 50.2507 107.637 53.0211 107.272 54.3494L105.087 48.6568L103.129 44.6719L102.903 42.3949L100.171 45.8105L96.8938 44.6719C96.5296 44.2924 95.6921 43.3057 95.2551 42.3949C94.8181 41.4841 94.3447 40.1179 94.1626 39.5486H88.1539L85.4226 37.8408L87.0614 34.9945L89.2464 33.2868L87.0614 29.8712C85.7868 30.82 83.1284 32.9452 82.6914 33.856C82.2544 34.7668 79.596 36.1331 78.3214 36.7023C77.9573 35.5638 77.0104 33.2868 76.1364 33.2868C75.0439 33.2868 71.2202 32.1482 70.674 32.1482C70.1277 32.1482 67.9427 31.0097 67.3965 29.8712C66.9595 28.9604 67.2144 26.8351 67.3965 25.8864L72.859 21.9016C73.5873 23.2298 75.0439 26.0002 75.0439 26.4556C75.0439 27.0249 75.0439 27.5942 75.5902 28.7327C76.1364 29.8712 77.7752 32.1482 78.8677 31.579C79.9602 31.0097 82.6914 31.0097 82.6914 29.8712C82.6914 28.7327 83.7839 27.0249 83.7839 26.4556C83.7839 25.8864 84.3301 21.9016 84.3301 21.3323C84.3301 20.763 84.3301 17.3475 84.3301 16.7782C84.3301 16.3228 83.2376 13.1729 82.6914 11.6549H79.9602C79.0498 11.8446 77.1197 12.338 76.6827 12.7934C76.2457 13.2488 75.7723 14.8807 75.5902 15.6397C75.9544 15.6397 76.1364 15.7536 73.9515 16.209C71.2202 16.7782 71.2202 17.3475 69.5815 17.9167C67.9427 18.486 65.7578 19.6245 65.2115 20.1938C64.6653 20.763 63.5728 21.3323 63.0265 22.4708C62.4803 23.6093 60.8415 24.7479 59.749 24.7479C58.6566 24.7479 57.5641 24.7479 57.0178 24.7479C56.4716 24.7479 54.2866 23.0401 53.1941 22.4708C52.3201 22.0154 50.6449 21.1425 49.9166 20.763C49.7663 22.0913 49.5107 24.7479 49.6911 24.7479C49.9166 24.7479 45.5466 21.9016 43.9079 21.9016C42.2692 21.9016 38.4454 21.9016 37.8992 23.0401C37.4622 23.9509 36.2605 26.4556 35.7142 27.5942L35.168 32.1482C35.5321 32.5277 36.042 33.5145 35.168 34.4253C32.983 36.2469 30.9801 37.4613 30.2517 37.8408V39.5486C29.3413 39.5486 27.4113 39.5486 26.9743 39.5486C26.428 39.5486 25.3355 38.9794 25.3355 40.1179C25.3355 41.0287 26.0639 42.7744 26.428 43.5334C26.6101 43.7232 26.9743 44.2165 26.9743 44.6719C26.9743 45.2412 24.243 47.5182 24.243 48.0875C24.243 48.6568 23.1505 50.9338 23.1505 51.5031C23.1505 52.0723 24.243 55.4879 24.7893 55.4879C25.2263 55.4879 25.6997 55.8674 25.8818 56.0571C25.6997 56.8162 25.3355 58.448 25.3355 58.9034C25.3355 59.4727 26.428 61.1805 26.9743 61.7497C27.5205 62.319 24.7893 62.8883 24.243 63.4575C23.6968 64.0268 23.6968 64.596 23.1505 65.1653C22.7135 65.6207 21.876 66.1141 21.5118 66.3038L17.1418 63.4575L16.0493 65.1653C15.1389 65.7346 13.2089 66.7592 12.7719 66.3038C12.3349 65.8484 10.0406 64.2165 8.94813 63.4575C8.40189 63.078 7.41864 62.0913 7.85564 61.1805C8.40189 60.042 8.94813 57.1957 8.94813 56.6264C8.94813 56.171 7.49142 54.9186 6.76307 54.3494L4.03184 53.7801L2.3931 56.0571C1.66477 56.6264 0.426611 57.9926 1.30061 58.9034C2.3931 60.042 5.12459 62.8883 5.67083 63.4575C6.10783 63.9129 6.58107 66.3038 6.76307 67.4423L6.21708 74.8427C6.3991 75.6017 6.98165 77.2336 7.85564 77.689C8.94813 78.2583 9.49456 78.8275 10.0408 79.3968C10.5871 79.9661 10.0408 79.9661 11.1333 81.1046C12.2258 82.2431 13.3183 82.8124 13.3183 84.5201C13.3183 85.8864 13.3183 89.264 13.3183 90.782C13.1362 90.782 12.8813 91.0097 13.3183 91.9205C13.7553 92.8313 14.2287 95.7156 14.4108 97.0439L17.1418 100.459Z" stroke="#ED4545" stroke-width="1.5" stroke-linecap="round" stroke-linejoin="round"/>
<path d="M25.3369 75.4117C25.3368 74.4686 24.6033 73.7042 23.6983 73.7041C22.7933 73.7041 22.0596 74.4687 22.0596 75.4119C22.0596 76.355 22.793 77.1195 23.6979 77.1197C24.6031 77.1198 25.337 76.355 25.3369 75.4117Z" stroke="#ED4545" stroke-width="1.5" stroke-linecap="round" stroke-linejoin="round"/>
<path d="M59.7504 59.4726C59.7503 58.5295 59.0168 57.7651 58.1118 57.765C57.2068 57.765 56.4731 58.5296 56.4731 59.4728C56.4731 60.4159 57.2065 61.1804 58.1115 61.1806C59.0166 61.1807 59.7505 60.4159 59.7504 59.4726Z" stroke="#ED4545" stroke-width="1.5" stroke-linecap="round" stroke-linejoin="round"/>
<path d="M52.649 39.5483C52.6489 38.6052 51.9154 37.8408 51.0104 37.8407C50.1054 37.8407 49.3717 38.6053 49.3717 39.5485C49.3717 40.4916 50.1051 41.2561 51.0101 41.2563C51.9152 41.2564 52.6491 40.4916 52.649 39.5483Z" stroke="#ED4545" stroke-width="1.5" stroke-linecap="round" stroke-linejoin="round"/>
<path d="M64.1204 79.3967C64.1203 78.4536 63.3867 77.6892 62.4818 77.6891C61.5767 77.6891 60.8431 78.4537 60.8431 79.3969C60.8431 80.34 61.5765 81.1045 62.4814 81.1047C63.3866 81.1048 64.1205 80.34 64.1204 79.3967Z" stroke="#ED4545" stroke-width="1.5" stroke-linecap="round" stroke-linejoin="round"/>
<path d="M90.34 75.4117C90.3399 74.4686 89.6064 73.7042 88.7014 73.7041C87.7964 73.7041 87.0627 74.4687 87.0627 75.4119C87.0627 76.355 87.7961 77.1195 88.7011 77.1197C89.6062 77.1198 90.3401 76.355 90.34 75.4117Z" stroke="#ED4545" stroke-width="1.5" stroke-linecap="round" stroke-linejoin="round"/>
<path d="M94.7102 52.0722C94.7101 51.1292 93.9766 50.3647 93.0716 50.3646C92.1665 50.3646 91.4329 51.1292 91.4329 52.0724C91.4329 53.0155 92.1663 53.78 93.0712 53.7802C93.9764 53.7804 94.7103 53.0155 94.7102 52.0722Z" stroke="#ED4545" stroke-width="1.5" stroke-linecap="round" stroke-linejoin="round"/>
<path d="M116.014 116.398C116.014 115.455 115.28 114.691 114.375 114.691C113.47 114.691 112.737 115.455 112.737 116.399C112.737 117.342 113.47 118.106 114.375 118.106C115.28 118.107 116.014 117.342 116.014 116.398Z" stroke="#ED4545" stroke-width="1.5" stroke-linecap="round" stroke-linejoin="round"/>
<path d="M117.653 79.9658C117.653 79.0227 116.919 78.2582 116.014 78.2582C115.109 78.2581 114.375 79.0228 114.375 79.966C114.375 80.909 115.109 81.6736 116.014 81.6737C116.919 81.6739 117.653 80.9091 117.653 79.9658Z" stroke="#ED4545" stroke-width="1.5" stroke-linecap="round" stroke-linejoin="round"/>
<path d="M138.41 98.1821C138.41 97.239 137.676 96.4746 136.771 96.4745C135.866 96.4745 135.132 97.2391 135.132 98.1823C135.132 99.1254 135.866 99.8899 136.771 99.8901C137.676 99.8902 138.41 99.1254 138.41 98.1821Z" stroke="#ED4545" stroke-width="1.5" stroke-linecap="round" stroke-linejoin="round"/>
<path d="M162.445 106.721C162.444 105.778 161.711 105.013 160.806 105.013C159.901 105.013 159.167 105.778 159.167 106.721C159.167 107.664 159.901 108.429 160.806 108.429C161.711 108.429 162.445 107.664 162.445 106.721Z" stroke="#ED4545" stroke-width="1.5" stroke-linecap="round" stroke-linejoin="round"/>
<path d="M158.621 79.966C158.621 79.0229 157.888 78.2584 156.983 78.2584C156.078 78.2583 155.344 79.023 155.344 79.9662C155.344 80.9092 156.077 81.6738 156.982 81.6739C157.887 81.6741 158.621 80.9093 158.621 79.966Z" stroke="#ED4545" stroke-width="1.5" stroke-linecap="round" stroke-linejoin="round"/>
<path d="M142.233 57.1954C142.233 56.2523 141.5 55.4878 140.595 55.4878C139.69 55.4877 138.956 56.2524 138.956 57.1956C138.956 58.1386 139.69 58.9032 140.594 58.9034C141.5 58.9035 142.234 58.1387 142.233 57.1954Z" stroke="#ED4545" stroke-width="1.5" stroke-linecap="round" stroke-linejoin="round"/>
<path d="M174.462 65.165C174.462 64.2219 173.728 63.4575 172.823 63.4574C171.918 63.4574 171.185 64.222 171.185 65.1652C171.185 66.1083 171.918 66.8728 172.823 66.873C173.728 66.8731 174.462 66.1083 174.462 65.165Z" stroke="#ED4545" stroke-width="1.5" stroke-linecap="round" stroke-linejoin="round"/>
<path d="M185.387 87.9356C185.387 86.9925 184.653 86.2281 183.749 86.228C182.843 86.228 182.11 86.9926 182.11 87.9358C182.11 88.8789 182.843 89.6434 183.748 89.6436C184.653 89.6437 185.387 88.8789 185.387 87.9356Z" stroke="#ED4545" stroke-width="1.5" stroke-linecap="round" stroke-linejoin="round"/>
<path d="M203.413 108.998C203.413 108.055 202.68 107.29 201.775 107.29C200.87 107.29 200.136 108.055 200.136 108.998C200.136 109.941 200.87 110.706 201.774 110.706C202.68 110.706 203.413 109.941 203.413 108.998Z" stroke="#ED4545" stroke-width="1.5" stroke-linecap="round" stroke-linejoin="round"/>
<path d="M201.774 61.7497C201.774 60.8066 201.041 60.0421 200.136 60.0421C199.231 60.042 198.497 60.8067 198.497 61.7498C198.497 62.6929 199.231 63.4575 200.136 63.4576C201.041 63.4578 201.775 62.6929 201.774 61.7497Z" stroke="#ED4545" stroke-width="1.5" stroke-linecap="round" stroke-linejoin="round"/>
<path d="M230.18 31.5787C230.18 30.6356 229.446 29.8711 228.541 29.8711C227.636 29.871 226.902 30.6357 226.902 31.5789C226.902 32.522 227.636 33.2865 228.541 33.2867C229.446 33.2868 230.18 32.522 230.18 31.5787Z" stroke="#ED4545" stroke-width="1.5" stroke-linecap="round" stroke-linejoin="round"/>
</svg>
