<svg width="81" height="72" viewBox="0 0 81 72" fill="none" xmlns="http://www.w3.org/2000/svg">
<path d="M46.6274 13.6581V33M51.5 34.5L59.5 27M77.2548 38.6274C77.2548 55.5425 63.5425 69.2548 46.6274 69.2548C29.7124 69.2548 16 55.5425 16 38.6274C16 21.7124 29.7124 8 46.6274 8C63.5425 8 77.2548 21.7124 77.2548 38.6274Z" stroke="#ED4545" stroke-width="1.5" stroke-linecap="round" stroke-linejoin="round"/>
<path d="M57.8516 59.7032C46.6117 66.1925 32.2393 62.3415 25.75 51.1016C19.2607 39.8617 23.1117 25.4893 34.3516 19" stroke="#ED4545" stroke-width="1.5"/>
<circle cx="47" cy="39" r="3" stroke="#ED4545" stroke-width="1.5" stroke-linecap="round" stroke-linejoin="round"/>
<path d="M5.46436 15.9257L21 15.9257M1.77539 26.5787H13.76" stroke="#ED4545" stroke-width="1.5" stroke-linecap="round" stroke-linejoin="round"/>
<path d="M5.46436 62.8643H21M2.45924 51.7674H14M1 39.5721H11.653" stroke="#ED4545" stroke-width="1.5" stroke-linecap="round" stroke-linejoin="round"/>
<path d="M54.9875 1H38.376V5.15287H54.9875V1Z" stroke="#ED4545" stroke-width="1.5" stroke-linecap="round" stroke-linejoin="round"/>
<path d="M79.9998 19.382L70.8564 9.02869L67.7437 11.7777L76.887 22.131L79.9998 19.382Z" stroke="#ED4545" stroke-width="1.5" stroke-linecap="round" stroke-linejoin="round"/>
</svg>
