<svg width="70" height="71" viewBox="0 0 70 71" fill="none" xmlns="http://www.w3.org/2000/svg"><path d="M38.483 18.52L35 22.044 48.444 36 68 15.701 54.8 2l-3.618 3.663m-12.7 12.856l4.62 4.794m-4.62-4.794l4.096-4.146m0 0l4.4 4.568m-4.4-4.568l4.4-4.454m0 0l4.104 4.26m-4.104-4.26l4.204-4.256m0 0l4.293 4.456M5.483 51.52L2 55.044 15.444 69 35 48.702 21.8 35l-3.618 3.663m-12.7 12.856l4.62 4.794m-4.62-4.794l4.096-4.146m0 0l4.4 4.568m-4.4-4.568l4.4-4.454m0 0l4.104 4.26m-4.104-4.26l4.204-4.256m0 0l4.293 4.456M50.958 66l4.83-5-39.61-41m34.78 46h8.49m-8.49 0l-39.61-41m4.83-5l-4.83 5m4.83-5l3.864-4m-8.695 9L8.45 22m15.94-10.5L20.043 16m4.348-4.5l-2.899-3m2.899 3L64 52.5m0 0L59.653 57l-39.61-41M64 52.5v8.788m0 0V66h-4.552M64 61.288L59.448 66M21.492 8.5L20.042 7l-6.52-1L7 12v8.5L8.45 22M21.49 8.5L8.45 22" stroke="#ED4545" stroke-width="1.5" stroke-linecap="round"/></svg>