<svg width="136" height="147" viewBox="0 0 136 147" fill="none" xmlns="http://www.w3.org/2000/svg"><path d="M62.214 99.501s-11.182-3.818-16.636-8.755c-6.598-5.973-11.573-19.7-11.573-19.7L28.22 1h79.562l-5.786 70.046s-5.121 13.775-11.573 19.7c-5.793 5.319-17.36 8.754-17.36 8.754v18.241s7.452 13.656 15.913 16.053c3.274.927 5.703-.908 8.68.729 1.753.965 3.616 2.919 3.616 2.919v8.026H34.005v-8.026s1.904-1.882 3.617-2.919c3.633-2.199 6.845-.032 10.849-1.459 6.403-2.282 12.296-11.674 12.296-11.674M26.628 65.906s-9.387-6.793-13.912-12.562C3.23 41.249 1 15.656 1 15.656h21.235m91.53 0H135s-1.586 25.73-10.984 37.688c-4.664 5.935-13.912 12.562-13.912 12.562" stroke="#ED4545" stroke-width="1.5" stroke-linecap="round" stroke-linejoin="round"/><path d="M43.646 45.532L40.781 11.47h31.517m22.92 26.816L92.355 66.55C87.47 78.993 82.702 82.433 71.58 86.844" stroke="#ED4545" stroke-width="1.5" stroke-linecap="round" stroke-linejoin="round"/></svg>