<svg width="50" height="50" viewBox="0 0 50 50" fill="none" xmlns="http://www.w3.org/2000/svg"><path d="M15.634 44.75a21.924 21.924 0 01-8.595-7.188 21.787 21.787 0 01-3.9-10.479H0C1.067 39.917 11.846 50 25.01 50l1.382-.063L18.418 42l-2.784 2.75zm1.863-13.583A3.51 3.51 0 0116.409 31a2.242 2.242 0 01-.838-.5 2.064 2.064 0 01-.544-.77 2.476 2.476 0 01-.188-.98h-2.721c0 .75.146 1.417.44 1.98a4.61 4.61 0 001.172 1.437 5.296 5.296 0 001.716.854 6.338 6.338 0 002.009.312c.774 0 1.507-.104 2.156-.312a5.11 5.11 0 001.737-.917c.481-.396.879-.896 1.151-1.5s.419-1.27.419-2.02c0-.396-.042-.792-.147-1.167a3.472 3.472 0 00-.481-1.063c-.21-.333-.503-.625-.837-.896a4.322 4.322 0 00-1.277-.645 4.385 4.385 0 001.863-1.563c.209-.313.355-.625.46-.958a3.31 3.31 0 00.146-1c0-.75-.125-1.417-.376-2a3.708 3.708 0 00-1.068-1.438c-.418-.396-.983-.687-1.611-.896a7.66 7.66 0 00-2.135-.291c-.753 0-1.444.104-2.093.333-.628.23-1.193.542-1.653.938-.44.395-.796.854-1.068 1.395a4.135 4.135 0 00-.377 1.771h2.721c0-.354.063-.666.189-.937a1.96 1.96 0 01.523-.709c.23-.187.481-.354.795-.458a3.074 3.074 0 011.005-.167c.837 0 1.465.209 1.863.646.397.417.607 1.021.607 1.792 0 .375-.063.708-.168 1.02a1.812 1.812 0 01-.523.771 2.64 2.64 0 01-.858.5c-.335.125-.754.188-1.214.188h-1.612v2.146h1.612c.46 0 .879.041 1.256.146.376.104.69.27.941.479.252.229.46.5.607.833.147.334.21.73.21 1.188 0 .854-.252 1.5-.733 1.937-.481.48-1.151.688-1.988.688zM35.39 18.833a6.973 6.973 0 00-2.386-1.604c-.9-.375-1.925-.562-3.055-.562h-4.94v16.666h4.814c1.151 0 2.219-.187 3.16-.562.942-.375 1.759-.896 2.428-1.584a7.027 7.027 0 001.55-2.479c.355-.979.543-2.062.543-3.27v-.834c0-1.208-.188-2.291-.544-3.27-.377-.98-.9-1.813-1.57-2.5zm-.816 6.584a9.06 9.06 0 01-.293 2.354c-.21.687-.502 1.291-.9 1.77-.398.48-.9.855-1.486 1.105-.607.25-1.297.375-2.072.375H27.92V19h2.03c1.507 0 2.658.48 3.432 1.438.796.958 1.193 2.333 1.193 4.145v.834zM25.01 0l-1.38.063L31.602 8l2.784-2.77c6.844 3.228 11.741 9.832 12.474 17.666H50C48.953 10.083 38.175 0 25.01 0z" fill="#ED4545"/></svg>