<svg width="74" height="70" viewBox="0 0 74 70" fill="none" xmlns="http://www.w3.org/2000/svg"><path d="M37.855 69c18.501 0 33.5-14.998 33.5-33.5 0-18.502-14.999-33.5-33.5-33.5-18.502 0-33.5 14.998-33.5 33.5" stroke="#ED4545" stroke-width="1.5" stroke-linecap="round"/><path d="M15.354 22.695c7.237-12.534 23.265-16.829 35.8-9.592 12.533 7.237 16.828 23.264 9.591 35.799M1.5 29l2.832 8L8.5 29.5" stroke="#ED4545" stroke-width="1.5" stroke-linecap="round" stroke-linejoin="round"/><path d="M40.187 37.39c3.397 0 6.168-2.79 6.168-6.18 0-3.42-2.771-6.21-6.168-6.21h-7.15v10.89h-2.682v1.5h2.681v3.12h-2.681v1.32h2.681V46h1.609v-4.17h7.925v-1.32h-7.925v-3.12h5.542zM34.645 26.5h5.542c2.532 0 4.588 2.1 4.588 4.71 0 2.58-2.056 4.68-4.588 4.68h-5.542V26.5z" fill="#ED4545"/></svg>