<svg width="63" height="69" viewBox="0 0 63 69" fill="none" xmlns="http://www.w3.org/2000/svg"><path d="M13 1v38.734H1L31.5 68 62 39.734H50V1M3.5 35V22M8 35V18m51.5 17V22M55 35V18" stroke="#ED4545" stroke-width="1.5" stroke-linecap="round" stroke-linejoin="round"/><path d="M17 45l14.5 13L46 45" stroke="#ED4545" stroke-width="1.5" stroke-linecap="round" stroke-linejoin="round"/><path d="M33.832 30.39C37.23 30.39 40 27.6 40 24.21c0-3.42-2.77-6.21-6.168-6.21h-7.15v10.89H24v1.5h2.682v3.12H24v1.32h2.682V39h1.609v-4.17h7.925v-1.32h-7.925v-3.12h5.541zM28.291 19.5h5.541c2.533 0 4.589 2.1 4.589 4.71 0 2.58-2.056 4.68-4.589 4.68h-5.541V19.5z" fill="#ED4545"/></svg>