<svg width="89" height="110" viewBox="0 0 89 110" fill="none" xmlns="http://www.w3.org/2000/svg"><path d="M4.796 5.017h78.52m-78.52 0V89.55m0-84.534v20.176h78.52V5.017m0 0V89.55m0 0H4.795m78.52 0V71.243H71.542M4.796 89.55V71.243H17.88M1 93.287V1h86.667v92.287M1 93.287l7.5 15.039h70.741l8.426-15.039M1 93.287h86.667M28.462 45.558l-23.666.19V29.775h14.03M61.718 45.37h21.597V29.396l-11.016.19m-36.279.19l8.314-.048 8.314-.048M29.973 51.254H4.796v15.972h9.305m44.593-15.972h24.621v15.972H71.543m-33.256 0h11.338m-15.117 4.017H54.16M12.483 14.544a2.14 2.14 0 012.13 2.149 2.14 2.14 0 01-2.13 2.148 2.14 2.14 0 01-2.13-2.148 2.14 2.14 0 012.13-2.149zm0 21.39a2.14 2.14 0 012.13 2.149 2.14 2.14 0 01-2.13 2.148 2.139 2.139 0 01-2.13-2.148c0-1.186.953-2.148 2.13-2.148zm0 21.204a2.14 2.14 0 012.13 2.149 2.14 2.14 0 01-2.13 2.148 2.14 2.14 0 01-2.13-2.148 2.14 2.14 0 012.13-2.149zm0 20.643a2.14 2.14 0 012.13 2.149 2.14 2.14 0 01-2.13 2.148 2.14 2.14 0 01-2.13-2.148 2.14 2.14 0 012.13-2.149z" stroke="#ED4545" stroke-width="1.5"/><path d="M47.724 34.62l-3.167 3.089 12.226 12.226 17.784-17.784-12.004-12.004-3.29 3.21M47.722 34.62l4.201 4.2m-4.2-4.2l3.724-3.632m0 0l4.001 4.001m-4.001-4.001l4.001-3.903m0 0l3.733 3.733m-3.733-3.733l3.824-3.729m0 0l3.904 3.905M17.269 63.963l-3.167 3.09 12.226 12.226 17.784-17.784L32.108 49.49l-3.29 3.209m-11.55 11.263l4.201 4.2m-4.2-4.2l3.724-3.632m0 0l4.001 4.001m-4.001-4l4.001-3.904m0 0l3.733 3.733m-3.733-3.733l3.823-3.728m0 0l3.905 3.904M59.45 76.611l4.447-4.446-36.458-36.457m32.012 40.903h7.814m-7.814 0L22.994 40.154m4.445-4.446l-4.445 4.446m4.445-4.446l3.557-3.557m-8.002 8.003l-2.668-2.668m14.672-9.336l-4.002 4.001m4.002-4.001l-2.668-2.668m2.668 2.668l36.457 36.457m0 0l-4.002 4.001-36.457-36.457m40.459 32.456v7.815m0 0v4.19h-4.19m4.19-4.19l-4.19 4.19M32.33 25.481l-1.334-1.333-6.002-.89-6.002 5.336v7.558l1.334 1.334M32.33 25.481L20.326 37.487" stroke="#ED4545" stroke-width="1.5" stroke-linecap="round"/></svg>