<svg width="26" height="24" viewBox="0 0 26 24" fill="none" xmlns="http://www.w3.org/2000/svg"><path d="M23.541 5.439a7.104 7.104 0 00-3.767-3.776 7.032 7.032 0 00-7.222 1.06 7.032 7.032 0 00-7.222-1.06 7.045 7.045 0 00-2.247 1.515A7.126 7.126 0 001 8.22c0 .91.182 1.857.543 2.82.302.806.735 1.641 1.289 2.485.877 1.335 2.083 2.727 3.58 4.138 2.481 2.34 4.939 3.956 5.043 4.021l.634.415c.28.183.641.183.922 0l.634-.415a40.642 40.642 0 005.043-4.02c1.497-1.412 2.703-2.804 3.58-4.14.554-.843.99-1.678 1.29-2.483.36-.964.542-1.911.542-2.82a7.075 7.075 0 00-.559-2.782z" stroke="#999" stroke-width="2"/></svg>