<svg width="71" height="69" viewBox="0 0 71 69" fill="none" xmlns="http://www.w3.org/2000/svg"><path d="M1 15V1h23v14M1 15h23M1 15v14.5M24 15v14.5m0 0H1m23 0v13.75M1 29.5v13.75m0 0V57s1.917 11 11.5 11S24 57 24 57V43.25m-23 0h23" stroke="#ED4545" stroke-width="1.5" stroke-linecap="round" stroke-linejoin="round"/><path d="M17 56a4 4 0 10-8 0 4 4 0 008 0zm16.446-34.5L45.796 9l16.3 16.5-17.783 18m-10.867 11l10.867-11m0 0H70V68H29" stroke="#ED4545" stroke-width="1.5" stroke-linecap="round" stroke-linejoin="round"/></svg>