<svg width="253" height="147" viewBox="0 0 253 147" fill="none" xmlns="http://www.w3.org/2000/svg"><path d="M17.142 100.459l2.185-3.415 2.731-6.262 3.824-1.708 2.731 1.708 4.916-5.123-1.092-3.985-.546-1.708 6.554-3.985 1.093 2.847 7.647-1.139c.91.57 2.84 1.936 3.278 2.846.437.911.546 2.277.546 2.847l-1.639 2.846c.364 1.138 1.42 3.643 2.732 4.554 1.638 1.139 5.462 2.277 6.555 3.416 1.092 1.138 1.092 2.277 1.638 2.846.437.455 3.096.19 4.37 0v-3.985c-1.456-.19-4.042-.57-2.731-.57 1.639 0 4.37-1.707 4.916-1.707.547 0 2.185-2.846 2.732-2.846.437 0 5.28 3.036 7.647 4.554 1.457-.19 4.698-.456 6.009 0 1.31.455 3.46.569 4.37.569.182 1.139.437 3.53 0 3.985-.437.455-2.368 1.328-3.278 1.708l3.278 1.707c.182.949.655 2.961 1.092 3.416l1.639 1.708 3.277-2.847 3.278 2.847v5.123l.546 6.831c1.275.19 3.933.683 4.37 1.139.437.455 2.367 1.328 3.277 1.708l1.639 1.707c.729 1.518 2.294 4.554 2.731 4.554.437 0 2.732 1.518 3.824 2.277 1.275-.189 4.042-.683 4.916-1.138 1.093-.569 3.824-1.139 4.917-1.139 1.092 0 3.823 0 4.916.57.874.455 2.913 2.087 3.824 2.846l2.731-1.139 1.092-3.984 3.278-1.139 5.462 4.554c.546.759 1.748 2.277 2.185 2.277.546 0 3.278-1.138 4.37-1.138 1.093 0 2.731 1.707 3.824 1.707 1.092 0 2.185 2.277 3.277 2.277 1.093 0 3.278.57 3.824 0 .546-.569 4.37-1.138 4.37-1.707 0-.456 1.093-1.708 1.639-2.277l2.185-.57 2.185 1.139c1.092.569 0 1.138 2.731.569s3.824 0 4.916-1.708c1.093-1.707 1.639-3.984 1.639-4.554 0-.455.364-3.225.546-4.554l-1.638-1.708 1.092-2.846 2.731-3.415 4.37 1.138 5.463 5.693 4.916 3.985c1.639.189 5.025.683 5.462 1.138.437.455 2.367-.19 3.278-.569l-.546-2.846h3.823c.729.379 2.295 1.138 2.732 1.138.546 0 1.638 3.985 1.638 5.123 0 1.139.547 3.416 0 4.554-.546 1.139-1.092 2.847-2.185 3.416-1.092.569-3.277 1.139-3.277 1.708s2.731 6.262 2.731 6.831c0 .455-.364 2.087-.546 2.846l2.731-4.554c.91-.19 3.059-.797 4.37-1.708 1.311-.91 3.824-6.451 4.916-9.108.364-1.897 1.093-5.806 1.093-6.262v-6.831c-.182-1.518-.547-4.668-.547-5.123 0-.456-1.092-4.364-1.638-6.262l-1.093-1.708c1.457 3.226 4.479 9.791 4.916 10.247.547.569 2.677 4.554 2.977 5.693.241.91 2.122 2.277 3.032 2.846l-.546-5.124h3.277l2.185-.569-1.638-3.415c-1.275-1.329-3.933-3.985-4.37-3.985-.437 0-1.275-1.139-1.639-1.708l3.824-1.708-4.125-2.846c-1.174-.38-3.632-1.252-4.069-1.708-.546-.569-1.093-2.277-2.185-3.415-1.093-1.139-1.639-3.416-2.185-3.985l-2.185-2.277-2.731-.57c.91.95 2.731 3.075 2.731 3.985 0 1.139 0 2.847-.546 2.847s-4.37.569-4.916 0c-.437-.456-1.275-.95-1.639-1.139l-1.093 3.985-2.731-2.846-3.277 1.707.546-10.816 3.824-9.108c1.092-1.897 3.386-5.692 3.823-5.692.437 0 3.46-2.277 4.917-3.416l2.185-1.708 3.823 2.847c.911-.76 2.731-2.391 2.731-2.847 0-.455.729-3.225 1.093-4.554l-3.278-1.708c-.728-.948-2.185-2.96-2.185-3.415 0-.455.365-4.364.547-6.262h2.731c.728.193 2.185.635 2.185.859 0 .224.728 1.798 1.092 2.557v-6.262l-2.185-3.985 2.185-1.139 3.278 2.847-.546 6.83c0 2.088.109 6.377.546 6.832.546.57 1.092 6.262 1.092 7.4 0 .911 1.093 5.314 1.639 7.4l4.37 4.555c1.457.949 4.589 2.846 5.463 2.846h4.37l2.731-.57-2.731-10.815-3.278-3.416-1.092-1.707 1.638-2.847-1.638-.569-1.639-4.554-2.185-1.139-3.278-.569-1.638 1.708-.547-7.4 1.093-3.416c.364-1.328 1.202-4.212 1.639-5.123.437-.911 2.003-2.277 2.731-2.847 0-.759-.219-2.618-1.093-3.984-1.092-1.708-2.185-1.708-2.185-3.416v-5.693c0-.91.365-1.897.547-2.277l1.638-3.415-6.008-.57h-2.185l-1.639-2.846h-2.185l-.546-3.415 4.37-.57c1.274-.19 3.823-.796 3.823-1.707s.729-3.036 1.093-3.985l-4.916-5.123-1.093-2.847-2.731 2.847L226.9 7.1l1.639 3.415h-4.37c-1.274.19-3.933.797-4.37 1.708l-7.101 6.831-.546 3.416-.546 2.846h-2.732v3.985c-.364.949-1.311 2.96-2.185 3.416-1.092.569-5.462 2.276-6.008 2.846-.547.57-4.37 2.277-4.37 2.846 0 .456-1.457.949-2.185 1.139l-5.463-1.139-3.824.57-2.731-.57-2.731-1.708c0-.569.109-1.935.546-2.846.547-1.139-1.092-2.846-1.638-2.846-.437 0-3.096 1.138-4.37 1.707-.547.95-1.311 3.075 0 3.985 1.638 1.139 4.37 1.139 6.008 2.277 1.639 1.139 4.37 3.416 4.37 4.554 0 1.139-1.092 4.554-1.638 5.124-.547.569-2.185 0-3.278 0-1.092 0-2.731 2.846-2.731 3.415 0 .57-2.731 0-2.731-.569 0-.57-1.639-3.985-2.185-4.554-.547-.57 0-2.277-2.185-2.277-3.824.57-4.37 2.846-4.37 3.416 0 .569-.547 2.276-1.093 2.276-.546 0-1.639-1.138-2.731-1.707-1.093-.57-2.185-1.708-3.278-1.708-1.092 0-2.185-1.139-2.731 0-.437.91-1.639 2.657-2.185 3.416.364.759.765 2.049-.546 1.138-1.639-1.139-2.185-2.277-2.185-3.416 0-1.138-.546-2.846 1.092-3.415 1.639-.57 3.824 0 4.917-1.139 1.092-1.138 3.277-2.277 2.731-2.846-.546-.57-1.639-1.708-2.731-2.277-1.093-.57-4.917-2.846-5.463-2.846-.437 0-2.731-.38-3.824-.57l-1.638 2.847c0 .57-.328 1.708-1.639 1.708h-4.37c-.546 0-4.37-.57-5.462 0-.874.455-3.642 2.087-4.917 2.846l-1.638 1.708-2.185 3.984-1.639-1.138-1.639 2.277c-.364.57-1.092 1.48-1.092.57 0-.911.364-3.796.546-5.124l-4.37 3.416c-.546.758-1.639 2.504-1.639 3.415 0 1.139-.546 3.416-.546 3.985 0 .57 1.092 2.277 1.639 2.846.437.456.91 2.087 1.092 2.846l-3.824-1.707-1.638 1.708c-.437.455-2.732 1.328-3.824 1.707h-1.639l-1.639-.569 4.917-5.123c.364-1.329 1.092-4.099 1.092-4.554 0-.57 1.093-2.847 1.639-3.985.546-1.139 2.185-2.846 2.731-3.416.437-.455 1.639-2.087 2.185-2.846.182-.57.437-1.708 0-1.708s-2.731 1.139-3.824 1.708l-3.823 3.985c-.547.569-1.639 2.846-1.639 3.415 0 .456-.728 3.226-1.093 4.554l-2.185-5.692-1.958-3.985-.226-2.277-2.732 3.415-3.277-1.138c-.364-.38-1.202-1.366-1.639-2.277-.437-.91-.91-2.277-1.092-2.846h-6.01l-2.73-1.708 1.638-2.846 2.185-1.708-2.185-3.416c-1.274.949-3.933 3.074-4.37 3.985-.437.91-3.095 2.277-4.37 2.846-.364-1.138-1.31-3.415-2.185-3.415-1.092 0-4.916-1.139-5.462-1.139-.546 0-2.731-1.138-3.278-2.277-.436-.91-.182-3.036 0-3.985l5.463-3.984c.728 1.328 2.185 4.098 2.185 4.554 0 .569 0 1.138.546 2.277.546 1.138 2.185 3.415 3.278 2.846 1.092-.57 3.823-.57 3.823-1.708s1.093-2.846 1.093-3.415c0-.57.546-4.554.546-5.124v-4.554c0-.455-1.092-3.605-1.639-5.123h-2.73c-.911.19-2.841.683-3.278 1.138-.437.456-.91 2.088-1.093 2.847.364 0 .546.114-1.639.569-2.73.57-2.73 1.139-4.37 1.708-1.638.569-3.823 1.707-4.37 2.277-.546.569-1.638 1.138-2.184 2.277-.547 1.138-2.185 2.277-3.278 2.277h-2.731c-.546 0-2.731-1.708-3.824-2.277l-3.277-1.708c-.15 1.328-.406 3.985-.226 3.985.226 0-4.144-2.846-5.783-2.846-1.639 0-5.463 0-6.009 1.138l-2.185 4.554-.546 4.554c.364.38.874 1.366 0 2.277-2.185 1.822-4.188 3.036-4.916 3.416v1.708h-3.278c-.546 0-1.639-.57-1.639.569 0 .91.729 2.656 1.093 3.415.182.19.546.684.546 1.139 0 .57-2.731 2.846-2.731 3.416 0 .569-1.092 2.846-1.092 3.415 0 .57 1.092 3.985 1.638 3.985.437 0 .91.38 1.093.57-.182.758-.547 2.39-.547 2.845 0 .57 1.093 2.278 1.64 2.847.545.569-2.186 1.138-2.732 1.708-.546.569-.546 1.138-1.092 1.707-.438.456-1.275.95-1.64 1.139l-4.37-2.846-1.092 1.707c-.91.57-2.84 1.594-3.277 1.139-.437-.456-2.731-2.088-3.824-2.846-.546-.38-1.53-1.367-1.092-2.277.546-1.139 1.092-3.985 1.092-4.555 0-.455-1.457-1.707-2.185-2.277l-2.731-.569-1.639 2.277c-.728.57-1.966 1.936-1.092 2.846l4.37 4.555c.437.455.91 2.846 1.092 3.984l-.546 7.4c.182.76.765 2.392 1.639 2.847 1.092.57 1.639 1.139 2.185 1.708.546.57 0 .57 1.092 1.708 1.093 1.138 2.185 1.707 2.185 3.415v6.262c-.182 0-.437.228 0 1.139.437.91.91 3.795 1.093 5.123l2.73 3.415z" stroke="#ED4545" stroke-width="1.5" stroke-linecap="round" stroke-linejoin="round"/><path d="M25.337 75.412c0-.943-.734-1.708-1.639-1.708s-1.638.765-1.638 1.708.733 1.707 1.638 1.708c.905 0 1.639-.765 1.639-1.708zM59.75 59.473c0-.944-.733-1.708-1.638-1.708-.905 0-1.639.765-1.639 1.708s.733 1.707 1.639 1.708c.905 0 1.639-.765 1.638-1.708zm-7.101-19.925c0-.943-.734-1.707-1.639-1.707s-1.638.764-1.638 1.707c0 .944.733 1.708 1.638 1.708.905 0 1.64-.764 1.639-1.708zM64.12 79.397c0-.943-.733-1.708-1.638-1.708-.905 0-1.639.765-1.639 1.708s.733 1.707 1.638 1.708c.906 0 1.64-.765 1.64-1.708zm26.22-3.985c0-.943-.734-1.708-1.639-1.708s-1.638.765-1.638 1.708.733 1.707 1.638 1.708c.905 0 1.64-.765 1.639-1.708zm4.37-23.34c0-.943-.733-1.707-1.638-1.707-.906 0-1.64.764-1.64 1.707 0 .944.734 1.708 1.64 1.708.904 0 1.638-.764 1.638-1.708zm21.304 64.326c0-.943-.734-1.707-1.639-1.707s-1.638.764-1.638 1.708c0 .943.733 1.707 1.638 1.707.905.001 1.639-.764 1.639-1.708zm1.639-36.432c0-.943-.734-1.708-1.639-1.708s-1.639.765-1.639 1.708.734 1.708 1.639 1.708 1.639-.765 1.639-1.708zm20.757 18.216c0-.943-.734-1.707-1.639-1.707s-1.639.764-1.639 1.707c0 .943.734 1.708 1.639 1.708s1.639-.765 1.639-1.708zm24.035 8.539c-.001-.943-.734-1.708-1.639-1.708s-1.639.765-1.639 1.708.734 1.708 1.639 1.708 1.639-.765 1.639-1.708zm-3.824-26.755c0-.943-.733-1.708-1.638-1.708-.905 0-1.639.765-1.639 1.708s.733 1.708 1.638 1.708c.905 0 1.639-.765 1.639-1.708zm-16.388-22.771c0-.943-.733-1.707-1.638-1.707-.905 0-1.639.764-1.639 1.708 0 .943.734 1.707 1.638 1.707.906 0 1.64-.764 1.639-1.708zm32.229 7.97c0-.943-.734-1.708-1.639-1.708s-1.638.765-1.638 1.708.733 1.708 1.638 1.708c.905 0 1.639-.765 1.639-1.708zm10.925 22.771c0-.944-.734-1.708-1.638-1.708-.906 0-1.639.765-1.639 1.708s.733 1.707 1.638 1.708c.905 0 1.639-.765 1.639-1.708zm18.026 21.062c0-.943-.733-1.708-1.638-1.708-.905 0-1.639.765-1.639 1.708s.734 1.708 1.638 1.708c.906 0 1.639-.765 1.639-1.708zm-1.639-47.248c0-.943-.733-1.708-1.638-1.708-.905 0-1.639.765-1.639 1.708s.734 1.708 1.639 1.708 1.639-.765 1.638-1.708zm28.406-30.171c0-.943-.734-1.708-1.639-1.708s-1.639.765-1.639 1.708.734 1.707 1.639 1.708c.905 0 1.639-.765 1.639-1.708z" stroke="#ED4545" stroke-width="1.5" stroke-linecap="round" stroke-linejoin="round"/></svg>