<svg width="25" height="25" viewBox="0 0 25 25" xmlns="http://www.w3.org/2000/svg"><g id="iconshare"><g id="Group" fill-rule="evenodd" clip-rule="evenodd"><path id="Vector" d="M18.318 6.167L7.381 11.636l-.7-1.397L17.618 4.77l.7 1.397zm-.7 14.063L6.681 14.76l.7-1.396 10.937 5.469-.7 1.397z"/><path id="Vector_2" d="M21.094 6.25a2.343 2.343 0 100-4.687 2.343 2.343 0 000 4.687zm0 1.563a3.906 3.906 0 100-7.813 3.906 3.906 0 000 7.813zm0 15.625a2.343 2.343 0 100-4.687 2.343 2.343 0 000 4.686zm0 1.562a3.906 3.906 0 100-7.813 3.906 3.906 0 000 7.813zM3.906 14.844a2.344 2.344 0 100-4.688 2.344 2.344 0 000 4.688zm0 1.562a3.906 3.906 0 100-7.812 3.906 3.906 0 000 7.812z"/></g></g></svg>