<svg width="81" height="72" viewBox="0 0 81 72" fill="none" xmlns="http://www.w3.org/2000/svg"><path d="M46.627 13.658V33m4.873 1.5l8-7.5m17.755 11.627c0 16.915-13.712 30.628-30.628 30.628C29.712 69.255 16 55.543 16 38.627 16 21.712 29.712 8 46.627 8s30.628 13.712 30.628 30.627z" stroke="#ED4545" stroke-width="1.5" stroke-linecap="round" stroke-linejoin="round"/><path d="M57.852 59.703c-11.24 6.49-25.613 2.639-32.102-8.601-6.49-11.24-2.638-25.613 8.602-32.102" stroke="#ED4545" stroke-width="1.5"/><circle cx="47" cy="39" r="3" stroke="#ED4545" stroke-width="1.5" stroke-linecap="round" stroke-linejoin="round"/><path d="M5.464 15.926H21M1.775 26.579H13.76M5.464 62.864H21M2.46 51.767H14M1 39.572h10.653M54.987 1H38.376v4.153h16.611V1zM80 19.382L70.856 9.029l-3.112 2.749 9.143 10.353L80 19.382z" stroke="#ED4545" stroke-width="1.5" stroke-linecap="round" stroke-linejoin="round"/></svg>