<svg width="96" height="58" viewBox="0 0 96 58" fill="none" xmlns="http://www.w3.org/2000/svg"><g clip-path="url(#clip0)" stroke="#ED4545" stroke-linecap="round" stroke-linejoin="round"><path d="M62.019 20.783c0 7.307-5.924 13.23-13.231 13.23-7.308 0-13.231-5.923-13.231-13.23 0-7.308 5.923-13.231 13.23-13.231 7.308 0 13.232 5.923 13.232 13.23zM55.967 3.638A11.816 11.816 0 0164.508 0c6.552 0 11.864 5.323 11.864 11.889a11.89 11.89 0 01-8.996 11.539M40.095 4.394A11.816 11.816 0 0031.554.756c-6.552 0-11.864 5.322-11.864 11.889 0 5.575 3.83 10.253 8.996 11.538m1.585 3.023c-7.852.69-12.067 1.74-19.272 5.29V42.7m55.925-15.492c7.49.916 11.38 2.072 17.76 5.29V42.7M25.736 57.436V46.1s13.4-5.733 22.956-5.587c8.982.137 23.144 5.587 23.144 5.587l.378 11.336" stroke-width="1.5"/><path d="M48.18 47.18l-2.307-2.565 2.307-2.307 2.308 2.307-2.308 2.564zm0 0l-3.077 10.769m3.077-10.77l3.077 10.77"/></g><defs><clipPath id="clip0"><path fill="#fff" d="M0 0h95.869v57.949H0z"/></clipPath></defs></svg>