<svg width="70" height="71" viewBox="0 0 70 71" fill="none" xmlns="http://www.w3.org/2000/svg">
<path d="M38.4826 18.5191L35 22.0448L48.4444 36L68 15.7015L54.8 2L51.1818 5.66291M38.4826 18.5191L43.1014 23.3134M38.4826 18.5191L42.5778 14.3733M42.5778 14.3733L46.9778 18.9405M42.5778 14.3733L46.9778 9.91892M46.9778 9.91892L51.082 14.1791M46.9778 9.91892L51.1818 5.66291M51.1818 5.66291L55.4752 10.1194" stroke="#ED4545" stroke-width="1.5" stroke-linecap="round"/>
<path d="M5.48258 51.5191L2 55.0448L15.4444 69L35 48.7015L21.8 35L18.1818 38.6629M5.48258 51.5191L10.1014 56.3134M5.48258 51.5191L9.57778 47.3733M9.57778 47.3733L13.9778 51.9405M9.57778 47.3733L13.9778 42.9189M13.9778 42.9189L18.082 47.1791M13.9778 42.9189L18.1818 38.6629M18.1818 38.6629L22.4752 43.1194" stroke="#ED4545" stroke-width="1.5" stroke-linecap="round"/>
<path d="M50.9576 66L55.7881 61L16.178 20M50.9576 66H59.4481M50.9576 66L11.3475 25M16.178 20L11.3475 25M16.178 20L20.0424 16M11.3475 25L8.44915 22M24.3898 11.5L20.0424 16M24.3898 11.5L21.4915 8.5M24.3898 11.5L64 52.5M64 52.5L59.6525 57L20.0424 16M64 52.5V61.2884M64 61.2884V66H59.4481M64 61.2884L59.4481 66M21.4915 8.5L20.0424 7L13.5212 6L7 12V20.5L8.44915 22M21.4915 8.5L8.44915 22" stroke="#ED4545" stroke-width="1.5" stroke-linecap="round"/>
</svg>
