<svg width="50" height="50" viewBox="0 0 50 50" fill="none" xmlns="http://www.w3.org/2000/svg">
<path d="M15.6342 44.75C12.1917 43.136 9.22987 40.6589 7.03936 37.5617C4.84885 34.4645 3.5049 30.8536 3.13939 27.0833H0C1.06739 39.9167 11.846 50 25.0105 50L26.3918 49.9375L18.4177 42L15.6342 44.75ZM17.4969 31.1667C17.0992 31.1667 16.7225 31.1042 16.4085 31C16.0959 30.8966 15.8101 30.7259 15.5714 30.5C15.3411 30.2917 15.1528 30.0417 15.0272 29.7292C14.9016 29.4375 14.8388 29.1042 14.8388 28.75H12.118C12.118 29.5 12.2645 30.1667 12.5576 30.7292C12.8506 31.2917 13.2482 31.7708 13.7296 32.1667C14.2319 32.5417 14.797 32.8333 15.4458 33.0208C16.0737 33.2292 16.7434 33.3333 17.455 33.3333C18.2294 33.3333 18.9619 33.2292 19.6107 33.0208C20.2805 32.8125 20.8665 32.5 21.3478 32.1042C21.8292 31.7083 22.2269 31.2083 22.499 30.6042C22.771 30 22.9175 29.3333 22.9175 28.5833C22.9175 28.1875 22.8757 27.7917 22.771 27.4167C22.6717 27.0381 22.509 26.6789 22.2897 26.3542C22.0804 26.0208 21.7874 25.7292 21.4525 25.4583C21.0967 25.1875 20.6781 24.9792 20.1758 24.8125C20.9323 24.477 21.5781 23.9353 22.0385 23.25C22.2478 22.9375 22.3943 22.625 22.499 22.2917C22.6036 21.9583 22.6455 21.625 22.6455 21.2917C22.6455 20.5417 22.5199 19.875 22.2687 19.2917C22.036 18.733 21.6696 18.2395 21.2013 17.8542C20.7828 17.4583 20.2177 17.1667 19.5898 16.9583C18.941 16.7708 18.2294 16.6667 17.455 16.6667C16.7015 16.6667 16.0109 16.7708 15.3621 17C14.7342 17.2292 14.1691 17.5417 13.7087 17.9375C13.2691 18.3333 12.9134 18.7917 12.6413 19.3333C12.3901 19.875 12.2645 20.4583 12.2645 21.1042H14.9853C14.9853 20.75 15.0481 20.4375 15.1737 20.1667C15.2993 19.8958 15.4667 19.6458 15.6969 19.4583C15.9272 19.2708 16.1783 19.1042 16.4923 19C16.8062 18.8958 17.1201 18.8333 17.4969 18.8333C18.334 18.8333 18.9619 19.0417 19.3596 19.4792C19.7572 19.8958 19.9665 20.5 19.9665 21.2708C19.9665 21.6458 19.9037 21.9792 19.7991 22.2917C19.695 22.5895 19.5147 22.8552 19.2758 23.0625C19.0456 23.2708 18.7526 23.4375 18.4177 23.5625C18.0829 23.6875 17.6643 23.75 17.2039 23.75H15.5923V25.8958H17.2039C17.6643 25.8958 18.0829 25.9375 18.4596 26.0417C18.8363 26.1458 19.1503 26.3125 19.4014 26.5208C19.6526 26.75 19.8619 27.0208 20.0084 27.3542C20.1549 27.6875 20.2177 28.0833 20.2177 28.5417C20.2177 29.3958 19.9665 30.0417 19.4851 30.4792C19.0038 30.9583 18.334 31.1667 17.4969 31.1667ZM35.3914 18.8333C34.7216 18.1458 33.9263 17.6042 33.0054 17.2292C32.1055 16.8542 31.0799 16.6667 29.9498 16.6667H25.0105V33.3333H29.8242C30.9753 33.3333 32.0427 33.1458 32.9845 32.7708C33.9263 32.3958 34.7426 31.875 35.4123 31.1875C36.082 30.5 36.6053 29.6667 36.9611 28.7083C37.3169 27.7292 37.5052 26.6458 37.5052 25.4375V24.6042C37.5052 23.3958 37.3169 22.3125 36.9611 21.3333C36.5843 20.3542 36.0611 19.5208 35.3914 18.8333ZM34.5751 25.4167C34.5751 26.2917 34.4705 27.0625 34.2821 27.7708C34.0728 28.4583 33.7798 29.0625 33.3822 29.5417C32.9845 30.0208 32.4822 30.3958 31.8962 30.6458C31.2892 30.8958 30.5986 31.0208 29.8242 31.0208H27.9196V19H29.9498C31.4567 19 32.6078 19.4792 33.3822 20.4375C34.1775 21.3958 34.5751 22.7708 34.5751 24.5833V25.4167ZM25.0105 0L23.6291 0.0625L31.6032 8L34.3868 5.22917C41.2306 8.45833 46.1281 15.0625 46.8606 22.8958H50C48.9535 10.0833 38.175 0 25.0105 0Z" fill="#ED4545"/>
</svg>
