<svg width="74" height="70" viewBox="0 0 74 70" fill="none" xmlns="http://www.w3.org/2000/svg">
<path d="M37.8545 69C56.356 69 71.3545 54.0015 71.3545 35.5C71.3545 16.9985 56.356 2 37.8545 2C19.353 2 4.35449 16.9985 4.35449 35.5" stroke="#ED4545" stroke-width="1.5" stroke-linecap="round"/>
<path d="M15.3545 22.6954C22.5912 10.1611 38.6188 5.86648 51.1532 13.1032C63.6875 20.3399 67.9821 36.3675 60.7454 48.9019" stroke="#ED4545" stroke-width="1.5" stroke-linecap="round" stroke-linejoin="round"/>
<path d="M1.5 29L4.33215 37L8.49902 29.5" stroke="#ED4545" stroke-width="1.5" stroke-linecap="round" stroke-linejoin="round"/>
<path d="M40.1869 37.39C43.5835 37.39 46.3545 34.6 46.3545 31.21C46.3545 27.79 43.5835 25 40.1869 25H33.0361V35.89H30.3545V37.39H33.0361V40.51H30.3545V41.83H33.0361V46H34.645V41.83H42.5705V40.51H34.645V37.39H40.1869ZM34.645 26.5H40.1869C42.7195 26.5 44.7753 28.6 44.7753 31.21C44.7753 33.79 42.7195 35.89 40.1869 35.89H34.645V26.5Z" fill="#ED4545"/>
</svg>
