<svg width="63" height="69" viewBox="0 0 63 69" fill="none" xmlns="http://www.w3.org/2000/svg">
<path d="M13 1V39.7344H1L31.5 68L62 39.7344H50V1M3.5 35V22M8 35V18M59.5 35V22M55 35V18" stroke="#ED4545" stroke-width="1.5" stroke-linecap="round" stroke-linejoin="round"/>
<path d="M17 45L31.5 58L46 45" stroke="#ED4545" stroke-width="1.5" stroke-linecap="round" stroke-linejoin="round"/>
<path d="M33.8324 30.39C37.2291 30.39 40 27.6 40 24.21C40 20.79 37.2291 18 33.8324 18H26.6816V28.89H24V30.39H26.6816V33.51H24V34.83H26.6816V39H28.2905V34.83H36.216V33.51H28.2905V30.39H33.8324ZM28.2905 19.5H33.8324C36.365 19.5 38.4209 21.6 38.4209 24.21C38.4209 26.79 36.365 28.89 33.8324 28.89H28.2905V19.5Z" fill="#ED4545"/>
</svg>
