<svg width="26" height="23" viewBox="0 0 26 23" fill="none" xmlns="http://www.w3.org/2000/svg">
<path d="M23.5411 5.30353C23.1827 4.46138 22.6659 3.69823 22.0197 3.05681C21.3729 2.41347 20.6104 1.90221 19.7736 1.55085C18.9058 1.18506 17.9751 0.997824 17.0355 1.00002C15.7172 1.00002 14.4311 1.36633 13.3134 2.05826C13.046 2.22378 12.792 2.40558 12.5513 2.60366C12.3107 2.40558 12.0566 2.22378 11.7893 2.05826C10.6716 1.36633 9.3854 1.00002 8.06716 1.00002C7.11792 1.00002 6.1981 1.18453 5.32907 1.55085C4.48946 1.90359 3.73274 2.41101 3.08298 3.05681C2.43588 3.69751 1.91897 4.46084 1.56152 5.30353C1.18985 6.17997 1 7.11068 1 8.06853C1 8.9721 1.18183 9.91366 1.54281 10.8715C1.84496 11.672 2.27813 12.5023 2.83163 13.3407C3.70868 14.6676 4.91461 16.0515 6.41201 17.4543C8.8934 19.7797 11.3507 21.3861 11.455 21.4512L12.0887 21.8636C12.3695 22.0454 12.7305 22.0454 13.0112 21.8636L13.645 21.4512C13.7492 21.3834 16.2039 19.7797 18.688 17.4543C20.1854 16.0515 21.3913 14.6676 22.2683 13.3407C22.8218 12.5023 23.2577 11.672 23.5572 10.8715C23.9181 9.91366 24.1 8.9721 24.1 8.06853C24.1026 7.11068 23.9128 6.17997 23.5411 5.30353Z" stroke="#ED4545" stroke-width="2"/>
</svg>
