<svg width="41" height="41" viewBox="0 0 41 41" fill="none" xmlns="http://www.w3.org/2000/svg">
<path d="M9.60059 8.54199H33.0663V32.0327H9.60059V8.54199Z" fill="#F7F7F7"/>
<path d="M20.5 0C17.6664 0 15.0071 0.535278 12.5209 1.60583C10.0347 2.67639 7.86858 4.13644 6.02131 5.98486C4.17403 7.83556 2.70828 10.0029 1.62519 12.4936C0.542111 14.9809 0 17.6414 0 20.4795C0 23.3153 0.542111 25.9781 1.62519 28.4665C2.70828 30.955 4.17403 33.1246 6.02131 34.973C7.86858 36.8226 10.0347 38.2894 12.5209 39.3737C15.0071 40.4579 17.6664 41 20.5 41C23.3336 41 25.9929 40.4579 28.4791 39.3737C30.9653 38.2883 33.1314 36.8226 34.9787 34.973C36.826 33.1234 38.2917 30.955 39.3748 28.4665C40.4579 25.9781 41 23.3153 41 20.4795C41 17.6437 40.4579 14.9809 39.3748 12.4925C38.2917 10.0029 36.826 7.83442 34.9787 5.98486C33.1314 4.13644 30.9653 2.67639 28.4791 1.60583C25.9929 0.535278 23.3336 0 20.5 0ZM25.3334 14.1393H22.2926C22.0967 14.1393 21.9168 14.2509 21.7505 14.473C21.5831 14.6951 21.4999 14.9593 21.4999 15.2657V17.5184H25.3334L24.7913 20.6879H21.4999V30.1976H17.8749V20.6879H14.5835V17.5184H17.8749V15.6404C17.8749 14.3067 18.2917 13.1587 19.1254 12.2009C19.9579 11.2408 21.0136 10.7614 22.2915 10.7614H25.3323V14.1393H25.3334Z" fill="#415A94"/>
</svg>
