<svg width="41" height="41" viewBox="0 0 41 41" fill="none" xmlns="http://www.w3.org/2000/svg">
<path d="M20.5 41C31.8218 41 41 31.8218 41 20.5C41 9.17816 31.8218 0 20.5 0C9.17816 0 0 9.17816 0 20.5C0 31.8218 9.17816 41 20.5 41Z" fill="url(#paint0_linear)"/>
<path d="M29.1635 13.9452C28.9854 13.4627 28.7013 13.0259 28.3321 12.6674C27.9736 12.2983 27.5371 12.0142 27.0543 11.836C26.6627 11.684 26.0744 11.503 24.9909 11.4536C23.8187 11.4002 23.4673 11.3887 20.4999 11.3887C17.5323 11.3887 17.1808 11.3999 16.009 11.4534C14.9255 11.503 14.3369 11.684 13.9456 11.836C13.4627 12.0142 13.0259 12.2983 12.6678 12.6674C12.2985 13.0259 12.0145 13.4625 11.836 13.9452C11.684 14.3369 11.503 14.9255 11.4536 16.009C11.4002 17.1808 11.3887 17.5323 11.3887 20.4999C11.3887 23.4673 11.4002 23.8187 11.4536 24.9909C11.503 26.0744 11.684 26.6627 11.836 27.0543C12.0145 27.5371 12.2983 27.9736 12.6674 28.3321C13.0259 28.7013 13.4625 28.9854 13.9452 29.1635C14.3369 29.3159 14.9255 29.4969 16.009 29.5462C17.1808 29.5996 17.532 29.6109 20.4997 29.6109C23.4676 29.6109 23.8191 29.5996 24.9905 29.5462C26.0741 29.4969 26.6627 29.3159 27.0543 29.1635C28.0235 28.7896 28.7896 28.0235 29.1635 27.0543C29.3156 26.6627 29.4965 26.0744 29.5462 24.9909C29.5996 23.8187 29.6109 23.4673 29.6109 20.4999C29.6109 17.5323 29.5996 17.1808 29.5462 16.009C29.4969 14.9255 29.3159 14.3369 29.1635 13.9452ZM20.4999 26.2064C17.3479 26.2064 14.7928 23.6517 14.7928 20.4997C14.7928 17.3477 17.3479 14.7928 20.4999 14.7928C23.6517 14.7928 26.2068 17.3477 26.2068 20.4997C26.2068 23.6517 23.6517 26.2064 20.4999 26.2064ZM26.4324 15.9008C25.6958 15.9008 25.0987 15.3037 25.0987 14.5672C25.0987 13.8307 25.6958 13.2336 26.4324 13.2336C27.1689 13.2336 27.766 13.8307 27.766 14.5672C27.7658 15.3037 27.1689 15.9008 26.4324 15.9008Z" fill="white"/>
<path d="M20.4998 24.4859C22.7013 24.4859 24.4859 22.7013 24.4859 20.4998C24.4859 18.2983 22.7013 16.5137 20.4998 16.5137C18.2983 16.5137 16.5137 18.2983 16.5137 20.4998C16.5137 22.7013 18.2983 24.4859 20.4998 24.4859Z" fill="white"/>
<defs>
<linearGradient id="paint0_linear" x1="2.75281" y1="38.3288" x2="40.7422" y2="5.4431" gradientUnits="userSpaceOnUse">
<stop stop-color="#FFDD55"/>
<stop offset="0.5" stop-color="#FF543E"/>
<stop offset="1" stop-color="#C837AB"/>
</linearGradient>
</defs>
</svg>
