<svg width="68" height="72" viewBox="0 0 68 72" fill="none" xmlns="http://www.w3.org/2000/svg">
<path d="M24.4667 20.5243L17.6222 18L1 25.5728V69.4951L17.6222 61.9223M17.6222 61.9223V24.0583M17.6222 61.9223L33.7556 68.9903L50.3778 61.9223M50.3778 61.9223V24.0583M50.3778 61.9223L67 70V25.5728L50.3778 18L43.5333 20.5243" stroke="#ED4545" stroke-width="1.5"/>
<path d="M33.2581 62V59M33.2581 57V54M33.2581 51V48M33.2581 45V42M33.2581 39.5V36.5M33.2581 34V31M33.2581 7V10M33.2581 25L41 8.5C41 8.5 41 1 33.5 1C26 1 26 8.5 26 8.5L33.2581 25Z" stroke="#ED4545" stroke-width="1.5"/>
</svg>
