<svg width="47" height="59" viewBox="0 0 47 59" fill="none" xmlns="http://www.w3.org/2000/svg">
<path d="M32.9383 36.2543C35.5685 36.2543 37.35 36.8194 38.1974 37.7226L38.1977 37.7229L38.1977 37.7229C38.1991 37.7244 38.2006 37.726 38.202 37.7275L38.211 37.7191C38.5527 38.1532 38.7707 38.9591 38.4591 39.6861L38.4562 39.693L38.4537 39.7C38.3528 39.9841 38.1539 40.3019 37.7637 40.5515C37.3711 40.8025 36.7671 40.9956 35.8383 40.9956C34.3343 40.9956 31.2903 40.5046 27.8165 37.3049L27.7315 37.2266L27.6177 37.2464C27.4548 37.2746 27.292 37.3037 27.1295 37.3338V36.917L27.719 36.7959L26.9971 36.5054L26.9947 36.5045C26.1621 35.5968 25.3331 34.5603 24.5359 33.4703C24.0382 32.765 23.5409 31.9733 23.0968 31.1859L22.8459 30.7411L22.6723 31.2213C22.5562 31.5423 22.4408 31.868 22.3244 32.1969C21.9792 33.172 21.6245 34.1739 21.2131 35.1552C20.7354 36.292 20.2195 37.4123 19.6664 38.514L19.4081 39.0284L19.9523 38.8407C21.0171 38.4734 22.0935 38.1411 23.1798 37.8443C24.3784 37.5238 25.5856 37.2372 26.8001 36.9848L27.1239 37.3348C25.8069 37.5781 24.5011 37.8794 23.2103 38.2379L23.2103 38.2378L23.2035 38.2399L23.1219 38.2653C21.7824 38.681 20.434 39.0996 19.0899 39.5565L19.0024 39.5863L18.9587 39.6678C18.0671 41.3333 16.751 43.5371 15.2483 45.3213C14.4969 46.2134 13.7049 46.9933 12.9022 47.5486C12.0985 48.1047 11.3005 48.4244 10.532 48.4244C9.55463 48.4244 8.9705 47.9375 8.79007 47.7871C8.78913 47.7863 8.7882 47.7856 8.78729 47.7848C8.34589 47.3132 8.14956 46.7435 8.26865 46.1242L8.26876 46.1242L8.26992 46.117C8.33633 45.7021 8.56988 45.2374 8.98088 44.7347C9.3906 44.2335 9.96638 43.7071 10.6956 43.1697C12.1539 42.095 14.2043 40.9924 16.7045 39.9701L16.7842 39.9376L16.8239 39.8611C17.725 38.1238 18.5547 36.3501 19.3111 34.5443L19.3121 34.5419C20.1103 32.575 20.8417 30.5813 21.5051 28.5643L21.5331 28.479L21.497 28.3967C20.6377 26.4432 20.0978 24.4808 19.8966 22.7871C19.6944 21.0853 19.8386 19.6931 20.3042 18.8476C20.6337 18.2954 21.2433 17.9285 21.8404 17.9285C22.8593 17.9285 23.5407 18.4348 23.9799 19.2081C24.4263 19.9941 24.618 21.0539 24.618 22.1139C24.618 24.0104 24.1181 26.6648 23.0757 29.9415L23.0452 30.0374L23.0938 30.1256C23.644 31.1254 24.2474 32.1456 24.9381 33.1113C25.8288 34.382 26.8304 35.5703 27.9309 36.662L28.0182 36.7486L28.1391 36.726C29.9107 36.3945 31.5354 36.2543 32.9383 36.2543ZM36.8149 38.9757C36.9408 38.2855 36.7179 37.7925 36.3575 37.4619C36.0122 37.1451 35.5578 36.9916 35.2241 36.919C34.6404 36.77 33.7902 36.7254 32.8427 36.7254H32.8425C31.544 36.7265 30.2479 36.8357 28.9673 37.052L28.4763 37.1349L28.8531 37.4605C30.5098 38.8915 32.1806 39.8064 33.9738 40.2421L33.9843 40.2447L33.9949 40.2462C34.0512 40.2546 34.1077 40.2637 34.1647 40.273C34.3685 40.306 34.5784 40.34 34.8082 40.34C35.8366 40.34 36.6584 39.829 36.8233 38.9773L36.8149 38.9757ZM20.7096 19.1636L20.6722 19.2407C20.6569 19.2704 20.6421 19.3008 20.6277 19.3321L20.546 19.5004H20.5575C20.3041 20.1696 20.218 21.1428 20.3094 22.2996C20.4194 23.6917 20.7894 25.3895 21.48 27.2325L21.725 27.8864L21.9241 27.217C22.7047 24.5923 23.1705 22.2694 23.1705 20.7225C23.1705 20.2641 23.1256 19.7202 22.9418 19.2829C22.8489 19.0617 22.7155 18.856 22.5232 18.7051C22.3275 18.5515 22.0845 18.4656 21.795 18.4656V18.4655L21.7886 18.4657C21.5623 18.4719 21.342 18.5404 21.1518 18.6635C20.9616 18.7866 20.8087 18.9596 20.7096 19.1636ZM15.8588 40.9115L15.7512 40.9296L15.7329 40.9606C13.7251 41.8457 12.068 42.7799 10.8709 43.6744C10.2649 44.1273 9.77182 44.5737 9.41031 45.0026C9.0523 45.4274 8.81116 45.8493 8.73044 46.2551C8.61792 46.7281 8.79968 47.1334 9.11301 47.4552L9.12528 47.4678L9.1393 47.4784C9.35445 47.6416 9.63482 47.7591 9.95958 47.7591C10.3687 47.7591 10.8119 47.579 11.2685 47.2769C11.7287 46.9725 12.224 46.5298 12.7425 45.9701C13.7798 44.8504 14.9308 43.2396 16.0994 41.2619L15.9415 41.1686L15.8645 40.9105L15.8588 40.9115Z" fill="#ED4545" stroke="#ED4545" stroke-width="0.46875"/>
<path d="M1 1H35.0794L46 11.9634V57.9804H1V1Z" stroke="#ED4545" stroke-width="2"/>
<path d="M36.25 10.7961V2.42091L44.5925 10.7961H36.25Z" fill="white" stroke="#ED4545" stroke-width="2"/>
</svg>
