<svg width="47" height="59" viewBox="0 0 47 59" fill="none" xmlns="http://www.w3.org/2000/svg">
<path d="M32.9383 36.2545C35.5685 36.2545 37.35 36.8196 38.1974 37.7228L38.1977 37.7232L38.1977 37.7232C38.1991 37.7247 38.2006 37.7262 38.202 37.7277L38.211 37.7193C38.5527 38.1534 38.7707 38.9594 38.4591 39.6864L38.4562 39.6932L38.4537 39.7003C38.3528 39.9844 38.1539 40.3022 37.7637 40.5517C37.3711 40.8027 36.7671 40.9959 35.8383 40.9959C34.3343 40.9959 31.2903 40.5049 27.8165 37.3051L27.7315 37.2269L27.6177 37.2466C27.4548 37.2748 27.292 37.304 27.1295 37.334V36.9172L27.719 36.7962L26.9971 36.5057L26.9947 36.5047C26.1621 35.597 25.3331 34.5605 24.5359 33.4705C24.0382 32.7652 23.5409 31.9735 23.0968 31.1862L22.8459 30.7414L22.6723 31.2216C22.5562 31.5425 22.4408 31.8683 22.3244 32.1971C21.9792 33.1722 21.6245 34.1741 21.2131 35.1555C20.7354 36.2923 20.2195 37.4125 19.6664 38.5142L19.4081 39.0287L19.9523 38.8409C21.0171 38.4736 22.0935 38.1413 23.1798 37.8445C24.3784 37.5241 25.5856 37.2374 26.8001 36.985L27.1239 37.335C25.8069 37.5784 24.5011 37.8797 23.2103 38.2382L23.2103 38.2381L23.2035 38.2402L23.1219 38.2655C21.7824 38.6813 20.434 39.0998 19.0899 39.5568L19.0024 39.5866L18.9587 39.6681C18.0671 41.3335 16.751 43.5373 15.2483 45.3215C14.4969 46.2136 13.7049 46.9935 12.9022 47.5489C12.0985 48.105 11.3005 48.4247 10.532 48.4247C9.55463 48.4247 8.9705 47.9378 8.79007 47.7874C8.78913 47.7866 8.7882 47.7858 8.78729 47.785C8.34589 47.3134 8.14956 46.7437 8.26865 46.1244L8.26876 46.1245L8.26992 46.1172C8.33633 45.7023 8.56988 45.2377 8.98088 44.7349C9.3906 44.2337 9.96638 43.7073 10.6956 43.1699C12.1539 42.0953 14.2043 40.9926 16.7045 39.9704L16.7842 39.9378L16.8239 39.8614C17.725 38.1241 18.5547 36.3503 19.3111 34.5445L19.3121 34.5421C20.1103 32.5752 20.8417 30.5815 21.5051 28.5646L21.5331 28.4792L21.497 28.397C20.6377 26.4435 20.0978 24.481 19.8966 22.7874C19.6944 21.0855 19.8386 19.6934 20.3042 18.8479C20.6337 18.2957 21.2433 17.9287 21.8404 17.9287C22.8593 17.9287 23.5407 18.4351 23.9799 19.2084C24.4263 19.9943 24.618 21.0541 24.618 22.1141C24.618 24.0106 24.1181 26.6651 23.0757 29.9418L23.0452 30.0377L23.0938 30.1258C23.644 31.1256 24.2474 32.1459 24.9381 33.1116C25.8288 34.3822 26.8304 35.5705 27.9309 36.6623L28.0182 36.7489L28.1391 36.7263C29.9107 36.3948 31.5354 36.2545 32.9383 36.2545ZM36.8149 38.9759C36.9408 38.2858 36.7179 37.7928 36.3575 37.4621C36.0122 37.1453 35.5578 36.9919 35.2241 36.9193C34.6404 36.7703 33.7902 36.7256 32.8427 36.7256H32.8425C31.544 36.7267 30.2479 36.836 28.9673 37.0522L28.4763 37.1352L28.8531 37.4607C30.5098 38.8917 32.1806 39.8067 33.9738 40.2424L33.9843 40.2449L33.9949 40.2465C34.0512 40.2548 34.1077 40.264 34.1647 40.2732C34.3685 40.3062 34.5784 40.3403 34.8082 40.3403C35.8366 40.3403 36.6584 39.8292 36.8233 38.9775L36.8149 38.9759ZM20.7096 19.1639L20.6722 19.2409C20.6569 19.2706 20.6421 19.3011 20.6277 19.3324L20.546 19.5007H20.5575C20.3041 20.1698 20.218 21.143 20.3094 22.2998C20.4194 23.6919 20.7894 25.3898 21.48 27.2327L21.725 27.8867L21.9241 27.2173C22.7047 24.5926 23.1705 22.2696 23.1705 20.7227C23.1705 20.2643 23.1256 19.7204 22.9418 19.2832C22.8489 19.0619 22.7155 18.8562 22.5232 18.7053C22.3275 18.5517 22.0845 18.4659 21.795 18.4659V18.4658L21.7886 18.466C21.5623 18.4722 21.342 18.5406 21.1518 18.6637C20.9616 18.7868 20.8087 18.9599 20.7096 19.1639ZM15.8588 40.9117L15.7512 40.9298L15.7329 40.9608C13.7251 41.8459 12.068 42.7801 10.8709 43.6747C10.2649 44.1275 9.77182 44.5739 9.41031 45.0028C9.0523 45.4276 8.81116 45.8496 8.73044 46.2554C8.61792 46.7284 8.79968 47.1337 9.11301 47.4555L9.12528 47.4681L9.1393 47.4787C9.35445 47.6418 9.63482 47.7593 9.95958 47.7593C10.3687 47.7593 10.8119 47.5793 11.2685 47.2772C11.7287 46.9728 12.224 46.53 12.7425 45.9704C13.7798 44.8507 14.9308 43.2399 16.0994 41.2621L15.9415 41.1688L15.8645 40.9108L15.8588 40.9117Z" fill="#ED4545" stroke="#ED4545" stroke-width="0.46875"/>
<path d="M1 1H35.0794L46 11.9634V57.9804H1V1Z" stroke="#ED4545" stroke-width="2"/>
<path d="M36.25 10.7961V2.42091L44.5925 10.7961H36.25Z" fill="white" stroke="#ED4545" stroke-width="2"/>
</svg>
