<svg width="25" height="25" viewBox="0 0 25 25" fill="none" xmlns="http://www.w3.org/2000/svg">
<path fill-rule="evenodd" clip-rule="evenodd" d="M24.1607 6.14286L18.3036 0.25L17.6786 0H3.89286L3 0.892857V10.7143H4.78571V1.78571H15.5V8.03571L16.3929 8.92857H22.6429V10.7143H24.4286V6.78571L24.1607 6.14286ZM17.2857 7.14286V1.78571L22.6429 7.14286H17.2857ZM3.89286 12.5L3 13.3929V24.1071L3.89286 25H23.5357L24.4286 24.1071V13.3929L23.5357 12.5H3.89286ZM22.6429 21.4286V23.2143H4.78571V14.2857H22.6429V21.4286ZM8.35714 19.6429H7.78571V21.4286H6.57143V16.0714H8.46429C9.80357 16.0714 10.4821 16.7143 10.4821 17.8571C10.4856 18.1 10.4363 18.3408 10.3376 18.5628C10.239 18.7847 10.0933 18.9827 9.91071 19.1429C9.46818 19.4878 8.9178 19.6649 8.35714 19.6429ZM8.25 17.0536H7.78571V18.7143H8.25C8.89286 18.7143 9.21429 18.4286 9.21429 17.875C9.21429 17.3214 8.89286 17.0536 8.25 17.0536ZM15.5 20.6786C15.7637 20.4188 15.9699 20.1066 16.1053 19.762C16.2406 19.4175 16.3021 19.0484 16.2857 18.6786C16.2857 16.8929 15.3393 16.0714 13.4286 16.0714H11.5357V21.4286H13.4286C13.8063 21.4469 14.1839 21.39 14.5395 21.2612C14.8951 21.1325 15.2215 20.9345 15.5 20.6786ZM12.7321 20.4464V17.0536H13.3214C13.5492 17.0391 13.7775 17.0712 13.9924 17.148C14.2074 17.2247 14.4044 17.3445 14.5714 17.5C14.7228 17.6589 14.8404 17.8469 14.9171 18.0525C14.9938 18.2582 15.0281 18.4772 15.0179 18.6964C15.0446 19.1671 14.8841 19.6293 14.5714 19.9821C14.4079 20.1386 14.2145 20.2604 14.0028 20.3401C13.791 20.4199 13.5654 20.4561 13.3393 20.4464H12.7321ZM20.6786 19.3571H18.9464V21.4286H17.7321V16.0714H20.8393V17.0536H18.9464V18.375H20.6786V19.3571Z" fill="#999999"/>
</svg>
