<svg width="22" height="22" viewBox="0 0 22 22" fill="none" xmlns="http://www.w3.org/2000/svg">
<path d="M21 16.7955C21 17.0511 20.9526 17.3849 20.858 17.7969C20.7633 18.2088 20.6638 18.5331 20.5597 18.7699C20.3608 19.2434 19.7831 19.7453 18.8267 20.2756C17.9366 20.7585 17.0559 21 16.1847 21C15.929 21 15.678 20.9834 15.4318 20.9503C15.1856 20.9171 14.9134 20.858 14.6151 20.7727C14.3168 20.6875 14.0942 20.6188 13.9474 20.5668C13.8007 20.5147 13.5379 20.4176 13.1591 20.2756C12.7803 20.1335 12.5483 20.0483 12.4631 20.0199C11.535 19.6884 10.7064 19.2955 9.97727 18.8409C8.77462 18.0928 7.52462 17.0701 6.22727 15.7727C4.92992 14.4754 3.9072 13.2254 3.15909 12.0227C2.70455 11.2936 2.31155 10.465 1.98011 9.53693C1.9517 9.4517 1.86648 9.2197 1.72443 8.84091C1.58239 8.46212 1.48532 8.19934 1.43324 8.05256C1.38116 7.90578 1.3125 7.68324 1.22727 7.38494C1.14205 7.08665 1.08286 6.81439 1.04972 6.56818C1.01657 6.32197 1 6.07102 1 5.81534C1 4.94413 1.24148 4.06345 1.72443 3.1733C2.25473 2.21686 2.75663 1.6392 3.23011 1.44034C3.46686 1.33617 3.79119 1.23674 4.20312 1.14205C4.61506 1.04735 4.94886 1 5.20455 1C5.33712 1 5.43655 1.0142 5.50284 1.04261C5.67329 1.09943 5.92424 1.45928 6.25568 2.12216C6.35985 2.30208 6.50189 2.55776 6.68182 2.8892C6.86174 3.22064 7.02746 3.52131 7.17898 3.79119C7.33049 4.06108 7.47727 4.31439 7.61932 4.55114C7.64773 4.58901 7.73059 4.70739 7.8679 4.90625C8.00521 5.10511 8.10701 5.2732 8.17329 5.41051C8.23958 5.54782 8.27273 5.68276 8.27273 5.81534C8.27273 6.00473 8.13778 6.24148 7.8679 6.52557C7.59801 6.80966 7.30445 7.07008 6.98722 7.30682C6.66998 7.54356 6.37642 7.79451 6.10653 8.05966C5.83665 8.32481 5.7017 8.54261 5.7017 8.71307C5.7017 8.79829 5.72538 8.90483 5.77273 9.03267C5.82008 9.16051 5.86032 9.25757 5.89347 9.32386C5.92661 9.39015 5.9929 9.50379 6.09233 9.66477C6.19176 9.82576 6.24621 9.91572 6.25568 9.93466C6.97538 11.232 7.79924 12.3447 8.72727 13.2727C9.6553 14.2008 10.768 15.0246 12.0653 15.7443C12.0843 15.7538 12.1742 15.8082 12.3352 15.9077C12.4962 16.0071 12.6098 16.0734 12.6761 16.1065C12.7424 16.1397 12.8395 16.1799 12.9673 16.2273C13.0952 16.2746 13.2017 16.2983 13.2869 16.2983C13.4574 16.2983 13.6752 16.1634 13.9403 15.8935C14.2055 15.6236 14.4564 15.33 14.6932 15.0128C14.9299 14.6955 15.1903 14.402 15.4744 14.1321C15.7585 13.8622 15.9953 13.7273 16.1847 13.7273C16.3172 13.7273 16.4522 13.7604 16.5895 13.8267C16.7268 13.893 16.8949 13.9948 17.0937 14.1321C17.2926 14.2694 17.411 14.3523 17.4489 14.3807C17.6856 14.5227 17.9389 14.6695 18.2088 14.821C18.4787 14.9725 18.7794 15.1383 19.1108 15.3182C19.4422 15.4981 19.6979 15.6402 19.8778 15.7443C20.5407 16.0758 20.9006 16.3267 20.9574 16.4972C20.9858 16.5634 21 16.6629 21 16.7955Z" stroke="#999999" stroke-width="2"/>
</svg>
