<svg width="25" height="25" viewBox="0 0 25 25" fill="none" xmlns="http://www.w3.org/2000/svg">
<g id="cil:print">
<path id="Vector" d="M21.0417 5.83854V0H3.95833V5.83854C2.89111 5.89324 1.88556 6.35539 1.14906 7.12968C0.41256 7.90398 0.00126745 8.93137 0 10V20H3.54167V18.3333H1.66667V10C1.66741 9.33719 1.93104 8.70173 2.39972 8.23306C2.8684 7.76438 3.50385 7.50074 4.16667 7.5H20.8333C21.4961 7.50074 22.1316 7.76438 22.6003 8.23306C23.069 8.70173 23.3326 9.33719 23.3333 10V18.3333H21.0417V20H25V10C24.9987 8.93137 24.5874 7.90398 23.8509 7.12968C23.1144 6.35539 22.1089 5.89324 21.0417 5.83854ZM19.375 5.83333H5.625V1.66667H19.375V5.83333Z" fill="#999999"/>
<path id="Vector_2" d="M19.7915 9.58333H21.4582V11.25H19.7915V9.58333Z" fill="#999999"/>
<path id="Vector_3" d="M5.20833 12.9167H3.125V14.5833H5.20833V25H19.375V14.5833H21.4583V12.9167H5.20833ZM17.7083 23.3333H6.875V14.5833H17.7083V23.3333Z" fill="#999999"/>
</g>
</svg>
