<svg width="71" height="69" viewBox="0 0 71 69" fill="none" xmlns="http://www.w3.org/2000/svg">
<path d="M0.999998 14.9999L0.999997 0.999997L24 0.999996L24 14.9999M0.999998 14.9999L24 14.9999M0.999998 14.9999L0.999998 29.4999M24 14.9999L24 29.4999M24 29.4999L0.999998 29.4999M24 29.4999L24 43.25M0.999998 29.4999L0.999999 43.25M0.999999 43.25L1 57C1 57 2.91667 68 12.5 68C22.0833 68 24 57 24 57L24 43.25M0.999999 43.25L24 43.25" stroke="#ED4545" stroke-width="1.5" stroke-linecap="round" stroke-linejoin="round"/>
<path d="M17 56C17 53.7909 15.2091 52 13 52C10.7909 52 9 53.7909 9 56C9 58.2091 10.7909 60 13 60C15.2091 60 17 58.2091 17 56Z" stroke="#ED4545" stroke-width="1.5" stroke-linecap="round" stroke-linejoin="round"/>
<path d="M33.4458 21.5L45.7952 9L62.0964 25.5L44.3133 43.5M33.4458 54.5L44.3133 43.5M44.3133 43.5L70 43.5L70 68L29 68" stroke="#ED4545" stroke-width="1.5" stroke-linecap="round" stroke-linejoin="round"/>
</svg>
