<svg width="25" height="25" viewBox="0 0 25 25" fill="none" xmlns="http://www.w3.org/2000/svg">
<path fill-rule="evenodd" clip-rule="evenodd" d="M18.3172 6.16714L7.37969 11.6359L6.67969 10.239L17.6172 4.77026L18.3172 6.16714ZM17.6172 20.2296L6.67969 14.7609L7.37969 13.364L18.3172 18.8328L17.6172 20.2296Z" fill="#999999"/>
<path fill-rule="evenodd" clip-rule="evenodd" d="M21.0938 6.25C21.7154 6.25 22.3115 6.00307 22.751 5.56353C23.1906 5.12399 23.4375 4.52785 23.4375 3.90625C23.4375 3.28465 23.1906 2.68851 22.751 2.24897C22.3115 1.80943 21.7154 1.5625 21.0938 1.5625C20.4721 1.5625 19.876 1.80943 19.4365 2.24897C18.9969 2.68851 18.75 3.28465 18.75 3.90625C18.75 4.52785 18.9969 5.12399 19.4365 5.56353C19.876 6.00307 20.4721 6.25 21.0938 6.25ZM21.0938 7.8125C22.1298 7.8125 23.1233 7.40095 23.8559 6.66839C24.5884 5.93582 25 4.94225 25 3.90625C25 2.87025 24.5884 1.87668 23.8559 1.14411C23.1233 0.41155 22.1298 0 21.0938 0C20.0577 0 19.0642 0.41155 18.3316 1.14411C17.5991 1.87668 17.1875 2.87025 17.1875 3.90625C17.1875 4.94225 17.5991 5.93582 18.3316 6.66839C19.0642 7.40095 20.0577 7.8125 21.0938 7.8125V7.8125ZM21.0938 23.4375C21.7154 23.4375 22.3115 23.1906 22.751 22.751C23.1906 22.3115 23.4375 21.7154 23.4375 21.0938C23.4375 20.4721 23.1906 19.876 22.751 19.4365C22.3115 18.9969 21.7154 18.75 21.0938 18.75C20.4721 18.75 19.876 18.9969 19.4365 19.4365C18.9969 19.876 18.75 20.4721 18.75 21.0938C18.75 21.7154 18.9969 22.3115 19.4365 22.751C19.876 23.1906 20.4721 23.4375 21.0938 23.4375ZM21.0938 25C22.1298 25 23.1233 24.5884 23.8559 23.8559C24.5884 23.1233 25 22.1298 25 21.0938C25 20.0577 24.5884 19.0642 23.8559 18.3316C23.1233 17.5991 22.1298 17.1875 21.0938 17.1875C20.0577 17.1875 19.0642 17.5991 18.3316 18.3316C17.5991 19.0642 17.1875 20.0577 17.1875 21.0938C17.1875 22.1298 17.5991 23.1233 18.3316 23.8559C19.0642 24.5884 20.0577 25 21.0938 25V25ZM3.90625 14.8438C4.52785 14.8437 5.12399 14.5968 5.56353 14.1573C6.00307 13.7177 6.25 13.1216 6.25 12.5C6.25 11.8784 6.00307 11.2823 5.56353 10.8427C5.12399 10.4032 4.52785 10.1562 3.90625 10.1562C3.28465 10.1562 2.68851 10.4032 2.24897 10.8427C1.80943 11.2823 1.5625 11.8784 1.5625 12.5C1.5625 13.1216 1.80943 13.7177 2.24897 14.1573C2.68851 14.5968 3.28465 14.8438 3.90625 14.8438V14.8438ZM3.90625 16.4062C4.94225 16.4062 5.93582 15.9947 6.66839 15.2621C7.40095 14.5296 7.8125 13.536 7.8125 12.5C7.8125 11.464 7.40095 10.4704 6.66839 9.73786C5.93582 9.0053 4.94225 8.59375 3.90625 8.59375C2.87025 8.59375 1.87668 9.0053 1.14411 9.73786C0.41155 10.4704 0 11.464 0 12.5C0 13.536 0.41155 14.5296 1.14411 15.2621C1.87668 15.9947 2.87025 16.4062 3.90625 16.4062V16.4062Z" fill="#999999"/>
</svg>
