<svg width="96" height="58" viewBox="0 0 96 58" fill="none" xmlns="http://www.w3.org/2000/svg">
<g clip-path="url(#clip0)">
<path d="M62.0189 20.7827C62.0189 28.0901 56.0951 34.0138 48.7877 34.0138C41.4804 34.0138 35.5566 28.0901 35.5566 20.7827C35.5566 13.4754 41.4804 7.55164 48.7877 7.55164C56.0951 7.55164 62.0189 13.4754 62.0189 20.7827Z" stroke="#ED4545" stroke-width="1.5" stroke-linecap="round" stroke-linejoin="round"/>
<path d="M55.9668 3.63841C58.1246 1.39532 61.1539 0 64.5085 0C71.0603 0 76.3717 5.32277 76.3717 11.8887C76.3717 17.4638 72.5425 22.1426 67.3761 23.4278" stroke="#ED4545" stroke-width="1.5" stroke-linecap="round" stroke-linejoin="round"/>
<path d="M40.0952 4.39415C37.9374 2.15105 34.9081 0.755737 31.5535 0.755737C25.0017 0.755737 19.6903 6.0785 19.6903 12.6445C19.6903 18.2195 23.5195 22.8983 28.6859 24.1835M30.2706 27.2065C22.4192 27.8958 18.204 28.9462 10.9994 32.4966V42.6991M66.9238 27.2065C74.414 28.123 78.3039 29.2791 84.6836 32.4966V42.6991M25.7362 57.4359V46.0999C25.7362 46.0999 39.1365 40.3674 48.692 40.5128C57.6744 40.6496 71.8361 46.0999 71.8361 46.0999L72.214 57.4359" stroke="#ED4545" stroke-width="1.5" stroke-linecap="round" stroke-linejoin="round"/>
<path d="M48.1804 47.1795L45.8727 44.6154L48.1804 42.3077L50.4881 44.6154L48.1804 47.1795ZM48.1804 47.1795L45.1035 57.9487M48.1804 47.1795L51.2574 57.9487" stroke="#ED4545" stroke-linecap="round" stroke-linejoin="round"/>
</g>
<defs>
<clipPath id="clip0">
<rect width="95.8693" height="57.9487" fill="white"/>
</clipPath>
</defs>
</svg>
