<svg width="42" height="41" viewBox="0 0 42 41" fill="none" xmlns="http://www.w3.org/2000/svg">
<path d="M8.74219 8.54199H32.7814V32.0327H8.74219V8.54199Z" fill="#F7F7F7"/>
<path d="M24.5 20.1458L19.5918 17.8931C19.3923 17.7815 19.215 17.7746 19.0575 17.8726C18.9012 17.9694 18.8242 18.1436 18.8242 18.3942V22.6058C18.8242 22.829 18.9012 22.9885 19.0575 23.0864C19.2138 23.1832 19.3923 23.1764 19.5918 23.0648L24.5 20.8553C24.7275 20.7437 24.8418 20.6184 24.8418 20.4795C24.8418 20.3406 24.7275 20.2289 24.5 20.1458ZM21 0C18.0973 0 15.3732 0.535278 12.8263 1.60583C10.2795 2.67639 8.0605 4.13644 6.16817 5.98486C4.27583 7.83556 2.77433 10.0029 1.66483 12.4936C0.555333 14.9809 0 17.6414 0 20.4795C0 23.3153 0.555333 25.9781 1.66483 28.4665C2.77433 30.955 4.27583 33.1246 6.16817 34.973C8.0605 36.8226 10.2795 38.2894 12.8263 39.3737C15.3732 40.4579 18.0973 41 21 41C23.9027 41 26.6268 40.4579 29.1737 39.3737C31.7205 38.2883 33.9395 36.8226 35.8318 34.973C37.7242 33.1234 39.2257 30.955 40.3352 28.4665C41.4447 25.9781 42 23.3153 42 20.4795C42 17.6437 41.4447 14.9809 40.3352 12.4925C39.2257 10.0029 37.7242 7.83442 35.8318 5.98486C33.9395 4.13644 31.7205 2.67639 29.1737 1.60583C26.6268 0.535278 23.9027 0 21 0ZM21 28.8207C15.6217 28.8207 12.4565 28.3549 11.5033 27.4233C10.5502 26.4917 10.073 24.1775 10.073 20.4795C10.073 16.7815 10.5502 14.473 11.5033 13.5551C12.4565 12.6383 15.6217 12.1793 21 12.1793C26.3783 12.1793 29.5435 12.6383 30.4967 13.5551C31.4498 14.473 31.927 16.7815 31.927 20.4795C31.927 24.1775 31.4498 26.4928 30.4967 27.4233C29.5435 28.3549 26.3783 28.8207 21 28.8207Z" fill="#AF2222"/>
</svg>
