<svg width="188" height="23" viewBox="0 0 188 23" fill="none" xmlns="http://www.w3.org/2000/svg"><path d="M15.961.038L.097 9.131 0 9.256l.02.153.125.091.053.01h6.17l.203-.058 2.35-1.344.305-.038.101.038 2.34 1.344.204.058h6.175l.145-.062.058-.14-.058-.144-.044-.033L12.95 6.15l-.097-.12.02-.154.077-.072 3.012-1.733.31-.038.097.038 9.385 5.381.203.058h6.175l.145-.062.058-.14-.058-.144-.044-.033L16.368.038 16.058 0l-.097.038zm10 13.275l-.203.052-2.34 1.345-.31.043-.097-.043-2.345-1.345-.203-.053h-6.175l-.145.058-.058.144.058.144.044.029 5.198 2.981.097.125-.02.154-.077.072-3.013 1.728-.304.043-.102-.043-9.385-5.382-.203-.053H.203l-.14.058-.063.144.063.144.039.029 15.864 9.097.295.039h.02l.091-.039 15.87-9.097.092-.12-.02-.154-.125-.09-.048-.01h-6.18z" fill="#AE2121"/><path d="M43.43 13.386h3.508v-3.142H43.43V7.201h4.024V4.079H40v13.744h3.43v-4.437zM52.644 7.2h4.044V4.08h-7.454v13.744h7.613v-3.279h-4.203v-2.238h3.688V9.164h-3.688V7.201zm16.481 10.604v-.177l-2.359-4.987c1.23-.904 1.645-2.14 1.665-3.712 0-2.906-1.863-4.85-4.678-4.85h-4.897v13.726h3.43v-4.3h1.308l1.784 4.3h3.747zm-6.899-7.226V7.18h1.507c.833 0 1.388.668 1.388 1.669 0 1.04-.555 1.728-1.388 1.728h-1.507zm18.709 7.226v-.177l-2.36-4.987c1.23-.904 1.646-2.14 1.666-3.712 0-2.906-1.864-4.85-4.679-4.85h-4.896v13.726h3.43v-4.3h1.308l1.784 4.3h3.747zm-6.9-7.226V7.18h1.507c.833 0 1.388.668 1.388 1.669 0 1.04-.555 1.728-1.388 1.728h-1.506zM87.155 18c2.895 0 4.838-1.924 4.838-4.791v-9.13h-3.41v9.051c0 1.021-.555 1.709-1.408 1.709-.872 0-1.447-.688-1.447-1.709V4.08h-3.43v9.13c0 2.867 1.943 4.791 4.857 4.791zM106 4h-1.209l-4.639 5.95L95.513 4h-1.21v13.823h3.43V11.6l2.22 2.945h.377l2.24-2.945v6.224H106V4z" fill="#333"/><path d="M111.4 13.411h3.479V10.3H111.4V7.286h3.99V4.194H108v13.612h3.4V13.41zM128.595 11c0-4.2-2.398-7-5.995-7-3.616 0-6.034 2.8-6.034 7s2.418 7 6.034 7c3.597 0 5.995-2.8 5.995-7zm-8.648 0c0-2.178 1.061-3.656 2.653-3.656 1.553 0 2.575 1.478 2.575 3.656s-1.022 3.675-2.575 3.675c-1.592 0-2.653-1.497-2.653-3.675zm20.635 6.786v-.175l-2.339-4.939c1.219-.894 1.631-2.12 1.651-3.675 0-2.878-1.848-4.803-4.639-4.803H130.4v13.592h3.401v-4.258h1.297l1.769 4.258h3.715zm-6.84-7.155V7.267h1.494c.825 0 1.375.66 1.375 1.652 0 1.031-.55 1.712-1.375 1.712h-1.494zm19.964-6.514h-1.199l-4.599 5.891-4.6-5.891h-1.199v13.689h3.401v-6.164l2.201 2.916h.373l2.221-2.916v6.164h3.401V4.116zm13.325 13.689v-.214L161.802 4h-1.69l-5.287 13.592v.214h3.557l.61-1.692h3.911l.609 1.692h3.519zm-7.076-4.453c.57-1.886.707-2.528.982-3.87.217 1.206.354 1.906 1.003 3.87h-1.985zm6.338-9.159v3.112h2.712v10.5h3.302v-10.5H175V4.194h-8.707zM180 3.028v1.137h.996V8h1.212V4.165h.989V3.028H180zM188 3h-.44l-1.689 2.152L184.183 3h-.44v5h1.248V5.749l.808 1.065h.137l.816-1.065V8H188V3z" fill="#666"/></svg>