<svg width="330" height="54" viewBox="0 0 330 54" fill="none" xmlns="http://www.w3.org/2000/svg"><path d="M37.065.611L.224 21.852 0 22.145l.045.359.292.213.123.022h14.328l.471-.134 5.457-3.14.707-.09.236.09 5.435 3.14.471.134h14.339l.337-.145.135-.326-.135-.336-.101-.079-12.07-6.964-.225-.28.045-.36.18-.168 6.995-4.048.718-.09.225.09 21.794 12.572.471.134h14.339l.337-.145.134-.326-.134-.336-.101-.079L38.008.611l-.719-.09-.224.09zm23.22 31.014l-.472.124-5.434 3.14-.72.1-.224-.1-5.445-3.14-.472-.124H33.179l-.336.135-.135.336.135.337.1.067 12.071 6.965.225.291-.045.36-.18.167-6.995 4.038-.707.1-.236-.1-21.794-12.572-.472-.124H.472l-.326.135-.146.336.146.337.09.067 36.84 21.253.685.09h.045l.213-.09L74.87 32.5l.213-.28-.044-.36-.292-.212-.113-.023h-14.35z" fill="#AE2121"/><path d="M98.593 30.823h5.603v-4.98h-5.603V21.02h6.426v-4.947H93.117v21.782h5.476v-7.032zm14.713-9.803h6.457v-4.947h-11.901v21.782h12.155V32.66h-6.711v-3.55h5.888v-4.979h-5.888V21.02zm26.315 16.804v-.28l-3.767-7.904c1.963-1.431 2.628-3.392 2.659-5.881 0-4.606-2.975-7.686-7.47-7.686h-7.818v21.751h5.476V31.01h2.089l2.849 6.815h5.982zm-11.015-11.451v-5.384h2.405c1.33 0 2.216 1.058 2.216 2.645 0 1.65-.886 2.739-2.216 2.739h-2.405zm29.871 11.451v-.28l-3.767-7.904c1.963-1.431 2.627-3.392 2.659-5.881 0-4.606-2.975-7.686-7.47-7.686h-7.818v21.751h5.476V31.01h2.089l2.848 6.815h5.983zm-11.015-11.451v-5.384h2.405c1.33 0 2.216 1.058 2.216 2.645 0 1.65-.886 2.739-2.216 2.739h-2.405zm20.948 11.763c4.621 0 7.723-3.05 7.723-7.593v-14.47h-5.444v14.345c0 1.618-.887 2.708-2.248 2.708-1.393 0-2.31-1.09-2.31-2.708V16.073h-5.476v14.47c0 4.543 3.102 7.593 7.755 7.593zm30.089-22.188h-1.931l-7.407 9.429-7.407-9.429h-1.931v21.907h5.476v-9.864l3.545 4.668h.602l3.577-4.668v9.864h5.476V15.948z" fill="#333"/><path d="M207.482 31.01h5.602v-4.98h-5.602v-4.823h6.425v-4.948h-11.901v21.783h5.476V31.01zm27.691-3.86c0-6.72-3.862-11.202-9.655-11.202-5.824 0-9.717 4.481-9.717 11.203 0 6.721 3.893 11.202 9.717 11.202 5.793 0 9.655-4.48 9.655-11.202zm-13.928 0c0-3.485 1.71-5.85 4.273-5.85 2.501 0 4.147 2.365 4.147 5.85 0 3.486-1.646 5.882-4.147 5.882-2.563 0-4.273-2.396-4.273-5.881zm33.231 10.861v-.28l-3.767-7.904c1.962-1.432 2.627-3.392 2.659-5.882 0-4.605-2.976-7.686-7.47-7.686h-7.819v21.752h5.476v-6.815h2.089l2.849 6.815h5.983zM243.46 26.56v-5.383h2.406c1.329 0 2.216 1.058 2.216 2.645 0 1.65-.887 2.738-2.216 2.738h-2.406zm32.15-10.425h-1.93l-7.407 9.429-7.407-9.43h-1.931v21.908h5.476v-9.864l3.545 4.667h.602l3.576-4.667v9.864h5.476V16.135zm21.459 21.907V37.7l-8.42-21.752h-2.722L277.412 37.7v.342h5.729l.981-2.707h6.299l.982 2.707h5.666zm-11.396-7.126c.918-3.018 1.14-4.045 1.583-6.192.348 1.929.57 3.05 1.614 6.192h-3.197zM295.88 16.26v4.978h4.368v16.804h5.318V21.238h4.336V16.26H295.88zm19.942-3.004v1.591h1.733v5.37h2.109v-5.37h1.72v-1.591h-5.562zm13.919-.04h-.766l-2.937 3.014-2.938-3.014h-.766v7.002h2.172v-3.153l1.406 1.492h.239l1.418-1.492v3.153h2.172v-7.002z" fill="#777"/></svg>