<svg width="188" height="23" viewBox="0 0 188 23" fill="none" xmlns="http://www.w3.org/2000/svg">
<path d="M15.9615 0.0384048L0.096707 9.13075L0 9.25556L0.0193414 9.40918L0.145061 9.5004L0.198249 9.51H6.36816L6.57124 9.45239L8.92122 8.10822L9.22585 8.06982L9.32739 8.10822L11.6677 9.45239L11.8708 9.51H18.0455L18.1906 9.44759L18.2486 9.30837L18.1906 9.16435L18.1471 9.13075L12.9491 6.14957L12.8524 6.02956L12.8717 5.87594L12.9491 5.80393L15.9615 4.07091L16.271 4.03251L16.3677 4.07091L25.7531 9.45239L25.9562 9.51H32.1309L32.276 9.44759L32.334 9.30837L32.276 9.16435L32.2324 9.13075L16.3677 0.0384048L16.0582 0L15.9615 0.0384048Z" fill="#AE2121"/>
<path d="M25.961 13.3125L25.7579 13.3653L23.4176 14.7095L23.1081 14.7527L23.0114 14.7095L20.6663 13.3653L20.4632 13.3125H14.2885L14.1434 13.3701L14.0854 13.5141L14.1434 13.6581L14.1869 13.6869L19.3849 16.6681L19.4816 16.7929L19.4623 16.9466L19.3849 17.0186L16.3725 18.7468L16.0679 18.79L15.9663 18.7468L6.58091 13.3653L6.37783 13.3125H0.203085L0.0628596 13.3701L0 13.5141L0.0628596 13.6581L0.101542 13.6869L15.9663 22.7841L16.2613 22.8225H16.2806L16.3725 22.7841L32.2421 13.6869L32.334 13.5669L32.3146 13.4133L32.1889 13.3221L32.1406 13.3125H25.961Z" fill="#AE2121"/>
<path d="M43.4296 13.3857H46.9385V10.244H43.4296V7.20056H47.4539V4.07854H40V17.8233H43.4296V13.3857Z" fill="#333333"/>
<path d="M52.6443 7.20056H56.6884V4.07854H49.2345V17.8233H56.847V14.5442H52.6443V12.3057H56.3316V9.1641H52.6443V7.20056Z" fill="#333333"/>
<path d="M69.1252 17.8036V17.6269L66.7661 12.6396C67.9952 11.7363 68.4115 10.4993 68.4314 8.92847C68.4314 6.02244 66.5679 4.07854 63.7528 4.07854H58.8563V17.8036H62.2859V13.5035H63.5943L65.3784 17.8036H69.1252ZM62.2264 10.5778V7.18093H63.733C64.5656 7.18093 65.1207 7.84853 65.1207 8.84993C65.1207 9.8906 64.5656 10.5778 63.733 10.5778H62.2264Z" fill="#333333"/>
<path d="M80.9346 17.8036V17.6269L78.5755 12.6396C79.8046 11.7363 80.2209 10.4993 80.2407 8.92847C80.2407 6.02244 78.3773 4.07854 75.5622 4.07854H70.6656V17.8036H74.0952V13.5035H75.4036L77.1878 17.8036H80.9346ZM74.0357 10.5778V7.18093H75.5424C76.375 7.18093 76.9301 7.84853 76.9301 8.84993C76.9301 9.8906 76.375 10.5778 75.5424 10.5778H74.0357Z" fill="#333333"/>
<path d="M87.1554 18C90.0497 18 91.9925 16.0757 91.9925 13.209V4.07854H88.5827V13.1304C88.5827 14.1515 88.0276 14.8387 87.1752 14.8387C86.3029 14.8387 85.728 14.1515 85.728 13.1304V4.07854H82.2984V13.209C82.2984 16.0757 84.2412 18 87.1554 18Z" fill="#333333"/>
<path d="M106 4H104.791L100.152 9.94951L95.513 4H94.3037V17.8233H97.7333V11.5989L99.9536 14.5442H100.33L102.57 11.5989V17.8233H106V4Z" fill="#333333"/>
<path d="M111.4 13.4111H114.879V10.3H111.4V7.28611H115.39V4.19444H108V17.8056H111.4V13.4111Z" fill="#666666"/>
<path d="M128.595 11C128.595 6.8 126.197 4 122.6 4C118.984 4 116.566 6.8 116.566 11C116.566 15.2 118.984 18 122.6 18C126.197 18 128.595 15.2 128.595 11ZM119.947 11C119.947 8.82222 121.008 7.34444 122.6 7.34444C124.153 7.34444 125.175 8.82222 125.175 11C125.175 13.1778 124.153 14.675 122.6 14.675C121.008 14.675 119.947 13.1778 119.947 11Z" fill="#666666"/>
<path d="M140.582 17.7861V17.6111L138.243 12.6722C139.462 11.7778 139.874 10.5528 139.894 8.99722C139.894 6.11944 138.046 4.19444 135.255 4.19444H130.4V17.7861H133.801V13.5278H135.098L136.867 17.7861H140.582ZM133.742 10.6306V7.26667H135.236C136.061 7.26667 136.611 7.92778 136.611 8.91944C136.611 9.95 136.061 10.6306 135.236 10.6306H133.742Z" fill="#666666"/>
<path d="M153.706 4.11667H152.507L147.908 10.0083L143.308 4.11667H142.109V17.8056H145.51V11.6417L147.711 14.5583H148.084L150.305 11.6417V17.8056H153.706V4.11667Z" fill="#666666"/>
<path d="M167.031 17.8056V17.5917L161.802 4H160.112L154.825 17.5917V17.8056H158.382L158.992 16.1139H162.903L163.512 17.8056H167.031ZM159.955 13.3528C160.525 11.4667 160.662 10.825 160.937 9.48333C161.154 10.6889 161.291 11.3889 161.94 13.3528H159.955Z" fill="#666666"/>
<path d="M166.293 4.19444V7.30556H169.005V17.8056H172.307V7.30556H175V4.19444H166.293Z" fill="#666666"/>
<path d="M180 3.02841V4.16477H180.996V8H182.208V4.16477H183.197V3.02841H180Z" fill="#666666"/>
<path d="M188 3H187.56L185.871 5.15199L184.183 3H183.743V8H184.991V5.74858L185.799 6.81392H185.936L186.752 5.74858V8H188V3Z" fill="#666666"/>
</svg>
