<svg width="330" height="54" viewBox="0 0 330 54" fill="none" xmlns="http://www.w3.org/2000/svg">
<path d="M37.0645 0.610961L0.224565 21.8525L0 22.144L0.0449131 22.5029L0.336848 22.716L0.460359 22.7384H14.7876L15.2592 22.6039L20.7162 19.4636L21.4235 19.3739L21.6593 19.4636L27.0938 22.6039L27.5654 22.7384H41.9039L42.2407 22.5927L42.3755 22.2674L42.2407 21.931L42.1397 21.8525L30.0693 14.8878L29.8447 14.6075L29.8897 14.2486L30.0693 14.0804L37.0645 10.0317L37.7831 9.94197L38.0077 10.0317L59.8018 22.6039L60.2733 22.7384H74.6118L74.9487 22.5927L75.0834 22.2674L74.9487 21.931L74.8476 21.8525L38.0077 0.610961L37.2891 0.52124L37.0645 0.610961Z" fill="#AE2121"/>
<path d="M60.2846 31.6252L59.813 31.7486L54.3785 34.8889L53.6599 34.9898L53.4353 34.8889L47.9896 31.7486L47.518 31.6252H33.1795L32.8427 31.7598L32.7079 32.0963L32.8427 32.4327L32.9437 32.5L45.0141 39.4646L45.2387 39.7562L45.1938 40.1151L45.0141 40.2833L38.0189 44.3208L37.3115 44.4217L37.0757 44.3208L15.2817 31.7486L14.8101 31.6252H0.471587L0.145967 31.7598L0 32.0963L0.145967 32.4327L0.235794 32.5L37.0757 53.7527L37.7607 53.8425H37.8056L38.0189 53.7527L74.8701 32.5L75.0834 32.2196L75.0385 31.8608L74.7466 31.6477L74.6343 31.6252H60.2846Z" fill="#AE2121"/>
<path d="M98.5932 30.8227H104.196V25.8437H98.5932V21.0203H105.019V16.0725H93.1172V37.8555H98.5932V30.8227Z" fill="#333333"/>
<path d="M113.306 21.0203H119.763V16.0725H107.862V37.8555H120.017V32.6587H113.306V29.1112H119.194V24.1322H113.306V21.0203Z" fill="#333333"/>
<path d="M139.621 37.8244V37.5443L135.854 29.6402C137.817 28.2087 138.482 26.2483 138.513 23.7588C138.513 19.1532 135.538 16.0725 131.043 16.0725H123.225V37.8244H128.701V31.0094H130.79L133.639 37.8244H139.621ZM128.606 26.3727V20.9892H131.011C132.341 20.9892 133.227 22.0473 133.227 23.6343C133.227 25.2836 132.341 26.3727 131.011 26.3727H128.606Z" fill="#333333"/>
<path d="M158.477 37.8244V37.5443L154.71 29.6402C156.673 28.2087 157.337 26.2483 157.369 23.7588C157.369 19.1532 154.394 16.0725 149.899 16.0725H142.081V37.8244H147.557V31.0094H149.646L152.494 37.8244H158.477ZM147.462 26.3727V20.9892H149.867C151.197 20.9892 152.083 22.0473 152.083 23.6343C152.083 25.2836 151.197 26.3727 149.867 26.3727H147.462Z" fill="#333333"/>
<path d="M168.41 38.1356C173.031 38.1356 176.133 35.086 176.133 30.5426V16.0725H170.689V30.4182C170.689 32.0363 169.802 33.1255 168.441 33.1255C167.048 33.1255 166.131 32.0363 166.131 30.4182V16.0725H160.655V30.5426C160.655 35.086 163.757 38.1356 168.41 38.1356Z" fill="#333333"/>
<path d="M198.499 15.948H196.568L189.161 25.3769L181.754 15.948H179.823V37.8555H185.299V27.9909L188.844 32.6587H189.446L193.023 27.9909V37.8555H198.499V15.948Z" fill="#333333"/>
<path d="M207.482 31.0094H213.084V26.0304H207.482V21.207H213.907V16.2592H202.006V38.0422H207.482V31.0094Z" fill="#777777"/>
<path d="M235.173 27.1507C235.173 20.4291 231.311 15.948 225.518 15.948C219.694 15.948 215.801 20.4291 215.801 27.1507C215.801 33.8723 219.694 38.3534 225.518 38.3534C231.311 38.3534 235.173 33.8723 235.173 27.1507ZM221.245 27.1507C221.245 23.6654 222.955 21.3004 225.518 21.3004C228.019 21.3004 229.665 23.6654 229.665 27.1507C229.665 30.636 228.019 33.0321 225.518 33.0321C222.955 33.0321 221.245 30.636 221.245 27.1507Z" fill="#777777"/>
<path d="M254.476 38.0111V37.731L250.709 29.8269C252.671 28.3955 253.336 26.435 253.368 23.9455C253.368 19.3399 250.392 16.2592 245.898 16.2592H238.079V38.0111H243.555V31.1961H245.644L248.493 38.0111H254.476ZM243.46 26.5595V21.1759H245.866C247.195 21.1759 248.082 22.234 248.082 23.821C248.082 25.4703 247.195 26.5595 245.866 26.5595H243.46Z" fill="#777777"/>
<path d="M275.61 16.1347H273.68L266.273 25.5637L258.866 16.1347H256.935V38.0422H262.411V28.1776L265.956 32.8454H266.558L270.134 28.1776V38.0422H275.61V16.1347Z" fill="#777777"/>
<path d="M297.069 38.0422V37.6999L288.649 15.948H285.927L277.412 37.6999V38.0422H283.141L284.122 35.3349H290.421L291.403 38.0422H297.069ZM285.673 30.9161C286.591 27.8976 286.813 26.8706 287.256 24.7235C287.604 26.6528 287.826 27.7731 288.87 30.9161H285.673Z" fill="#777777"/>
<path d="M295.88 16.2592V21.2382H300.248V38.0422H305.566V21.2382H309.902V16.2592H295.88Z" fill="#777777"/>
<path d="M315.822 13.2558V14.8471H317.555V20.2178H319.664V14.8471H321.384V13.2558H315.822Z" fill="#777777"/>
<path d="M329.741 13.2161H328.975L326.038 16.2296L323.1 13.2161H322.334V20.2178H324.506V17.065L325.912 18.5568H326.151L327.569 17.065V20.2178H329.741V13.2161Z" fill="#777777"/>
</svg>
